<?xml version="1.0" encoding="UTF-8" standalone="no"?>
<!-- Created with Inkscape (http://www.inkscape.org/) -->

<svg
   width="58.472916mm"
   height="52.122917mm"
   viewBox="0 0 58.472916 52.122917"
   version="1.1"
   id="svg1"
   xml:space="preserve"
   inkscape:version="1.4.2 (f4327f4, 2025-05-13)"
   sodipodi:docname="karla.svg"
   xmlns:inkscape="http://www.inkscape.org/namespaces/inkscape"
   xmlns:sodipodi="http://sodipodi.sourceforge.net/DTD/sodipodi-0.dtd"
   xmlns="http://www.w3.org/2000/svg"
   xmlns:svg="http://www.w3.org/2000/svg"><sodipodi:namedview
     id="namedview1"
     pagecolor="#ffffff"
     bordercolor="#000000"
     borderopacity="0.25"
     inkscape:showpageshadow="2"
     inkscape:pageopacity="0.0"
     inkscape:pagecheckerboard="0"
     inkscape:deskcolor="#d1d1d1"
     inkscape:document-units="mm"
     inkscape:zoom="3.4627986"
     inkscape:cx="81.581412"
     inkscape:cy="89.08979"
     inkscape:window-width="1920"
     inkscape:window-height="1174"
     inkscape:window-x="-11"
     inkscape:window-y="-11"
     inkscape:window-maximized="1"
     inkscape:current-layer="layer1" /><defs
     id="defs1" /><g
     inkscape:label="Ebene 1"
     inkscape:groupmode="layer"
     id="layer1"
     transform="translate(5.900457,-107.56121)"><g
       id="g1"
       transform="translate(80.486002,72.503919)"><path
         style="fill:#fefefe"
         d="M -86.386459,61.118752 V 35.057293 h 29.236457 29.236458 V 61.118752 87.18021 h -29.236458 -29.236457 z m 31.086861,24.434229 c 2.611068,-1.313763 4.889278,-2.926273 6.589466,-4.664004 l 1.296119,-1.32474 1.352489,1.385303 c 1.747744,1.790148 3.860481,2.537233 3.860481,1.365105 0,-0.185031 -0.275046,-0.879704 -0.611213,-1.543719 l -0.611213,-1.2073 1.488411,-0.107662 c 1.54823,-0.111989 3.297403,-1.031897 3.098564,-1.629565 -0.05553,-0.166915 -0.597176,-0.487022 -1.203655,-0.71135 l -1.10269,-0.407869 1.164785,-1.143151 c 1.418013,-1.391674 2.38913,-3.11964 2.925025,-5.204668 0.22161,-0.862231 0.605483,-1.686755 0.85305,-1.832276 0.247566,-0.145521 0.730422,-0.532474 1.073013,-0.859896 0.342591,-0.327422 0.789323,-0.595312 0.992738,-0.595312 1.077313,0 1.453615,-2.267626 0.95619,-5.762071 -0.159855,-1.12299 -0.399739,-1.602245 -1.225007,-2.447396 -0.564424,-0.578023 -1.180655,-1.05095 -1.369403,-1.05095 -0.241292,0 -0.352323,-0.490955 -0.373978,-1.653646 -0.11185,-6.005429 -0.461764,-7.797782 -2.249508,-11.522613 -2.43071,-5.064472 -5.315592,-6.974242 -12.536359,-8.298976 -1.748009,-0.320692 -9.856847,-0.126349 -10.980208,0.263162 -0.436563,0.151372 -1.74625,0.473662 -2.910417,0.716199 -4.307173,0.897338 -9.016827,3.539855 -11.204617,6.286745 -2.228157,2.797573 -3.048879,5.630289 -3.069229,10.593416 l -0.01501,3.660329 -0.837553,0.748355 c -1.253504,1.120005 -1.426726,1.623456 -1.597762,4.643718 -0.137825,2.433809 -0.09908,2.831476 0.321078,3.295749 0.262797,0.290388 0.628796,0.527979 0.813329,0.527979 0.588051,0 1.985194,1.624685 2.133618,2.481104 0.682274,3.936764 2.565507,6.481072 5.79102,7.823857 1.040855,0.433309 2.386267,0.866796 2.989805,0.963306 0.936585,0.149766 1.316125,0.432225 2.590766,1.928082 3.268214,3.835418 7.327162,6.819446 8.831428,6.492624 0.363802,-0.07904 1.613202,-0.622582 2.776445,-1.207869 z M -69.399226,69.154626 c -2.025747,-1.002723 -3.2289,-3.159044 -3.2289,-5.786916 0,-0.882473 0.172518,-2.017391 0.383374,-2.52204 0.513197,-1.228252 0.703842,-1.173206 0.258519,0.07464 -1.382717,3.874549 1.292055,8.006103 5.17894,7.999586 1.270276,-0.0021 3.361323,-1.211943 4.14715,-2.399408 0.929485,-1.404546 1.184064,-4.293973 0.518647,-5.886541 -0.227509,-0.544507 -0.300388,-0.92001 -0.161952,-0.834452 0.503958,0.311463 1.118308,3.104946 0.965884,4.391925 -0.49929,4.215721 -4.542685,6.705058 -8.061662,4.963202 z m 18.170502,-0.176221 c -2.014563,-1.05242 -2.971605,-2.655697 -3.099722,-5.192786 -0.06772,-1.341119 0.02763,-2.147569 0.33151,-2.803892 0.234616,-0.50672 0.349754,-0.683184 0.255861,-0.392142 -0.354634,1.099273 -0.409854,3.220986 -0.112563,4.32504 0.428735,1.5922 2.172378,3.295379 3.790902,3.702928 2.37376,0.59772 4.975545,-0.60021 6.028721,-2.775782 0.466813,-0.964305 0.545985,-1.507914 0.448482,-3.079318 -0.06512,-1.049557 -0.19872,-2.14641 -0.296883,-2.437451 -0.09816,-0.291042 0.03003,-0.112448 0.284877,0.396875 0.678183,1.35539 0.620585,4.307783 -0.110976,5.688541 -1.620891,3.059291 -4.6196,4.083284 -7.520209,2.567987 z m -18.671689,-7.101866 c -0.378274,-0.985768 1.077019,-1.857607 1.749069,-1.047836 0.18119,0.218321 0.252045,0.640785 0.157456,0.93881 -0.216619,0.682505 -1.654898,0.764754 -1.906525,0.109026 z m 18.449502,0.04867 c -0.54308,-0.654372 -0.223935,-1.335627 0.625697,-1.335627 0.948718,0 1.46945,0.698529 0.96966,1.300738 -0.434537,0.523586 -1.176312,0.539807 -1.595357,0.03489 z"
         id="path16" /><path
         style="fill:#d0d2d1"
         d="m -64.975235,82.483856 -0.641433,-0.727604 0.727604,0.641433 c 0.680056,0.599516 0.848939,0.813775 0.641433,0.813775 -0.04739,0 -0.374816,-0.327422 -0.727604,-0.727604 z m 21.930832,0.28228 c 0.190996,-0.07643 0.419199,-0.06703 0.507118,0.02089 0.08792,0.08792 -0.06835,0.150453 -0.347265,0.138965 -0.308225,-0.0127 -0.37092,-0.07539 -0.159853,-0.159853 z m -3.009743,-1.737488 -0.777106,-0.859896 0.859896,0.777105 c 0.801544,0.724371 0.981512,0.942686 0.777105,0.942686 -0.04553,0 -0.432487,-0.386953 -0.859895,-0.859895 z m -20.786896,-0.661459 c -0.329107,-0.419644 -0.319749,-0.429002 0.0999,-0.09989 0.254661,0.19972 0.463021,0.408079 0.463021,0.463021 0,0.217761 -0.217272,0.0776 -0.562916,-0.363126 z m -1.182015,-1.455208 -0.504028,-0.595313 0.595313,0.504028 c 0.559447,0.473662 0.715761,0.686597 0.504028,0.686597 -0.05021,0 -0.318097,-0.26789 -0.595313,-0.595312 z m -6.755485,-2.778125 c -0.329107,-0.419644 -0.319749,-0.429002 0.0999,-0.09989 0.254661,0.199719 0.463021,0.408079 0.463021,0.463021 0,0.217761 -0.217272,0.0776 -0.562916,-0.363126 z m 7.379021,-7.397026 c 0.329119,-0.06329 0.805369,-0.06088 1.058334,0.0053 0.252964,0.06622 -0.01631,0.118003 -0.598398,0.115066 -0.582083,-0.0029 -0.789054,-0.05712 -0.459936,-0.120406 z m 18.253165,0.0119 c 0.181901,-0.0734 0.479557,-0.0734 0.661458,0 0.181902,0.0734 0.03307,0.133453 -0.330729,0.133453 -0.363802,0 -0.51263,-0.06005 -0.330729,-0.133453 z m -14.089062,-0.61852 c 0.263389,-0.291042 0.53842,-0.529167 0.611181,-0.529167 0.07276,0 -0.08321,0.238125 -0.346598,0.529167 -0.263389,0.291042 -0.53842,0.529167 -0.611181,0.529167 -0.07276,0 0.08321,-0.238125 0.346598,-0.529167 z m 26.72098,-0.827726 c 0.08641,-0.781678 0.216866,-1.914395 0.289893,-2.517149 0.07303,-0.602754 0.131572,-2.418457 0.130101,-4.034896 -0.0028,-3.039939 0.129964,-3.363097 1.042223,-2.537514 0.370721,0.335498 0.405339,0.628959 0.21068,1.785938 -0.128114,0.76146 -0.202359,2.808333 -0.164988,4.548607 l 0.06795,3.164136 -0.866486,0.506055 -0.866486,0.506055 z m -42.796402,0.629288 c -0.637488,-0.71172 -0.760051,-9.08522 -0.143036,-9.7722 0.237313,-0.264222 0.471205,-0.837591 0.51976,-1.274154 0.04856,-0.436562 0.09574,1.230313 0.104865,3.704167 0.0091,2.473854 0.10433,5.242057 0.211576,6.151562 0.201846,1.711771 0.03316,2.001523 -0.693165,1.190625 z m 27.983545,0.201469 c -0.09269,-0.149982 0.01351,-0.194339 0.248968,-0.103985 0.458369,0.175893 0.542234,0.365537 0.161649,0.365537 -0.136933,0 -0.321711,-0.117698 -0.410617,-0.261552 z m -19.462991,-0.995219 -0.911799,-0.992187 0.992188,0.911798 c 0.923506,0.848682 1.113839,1.072577 0.911798,1.072577 -0.04421,0 -0.490698,-0.446484 -0.992187,-0.992188 z m 7.290285,0.198438 c 0.263389,-0.291042 0.53842,-0.529167 0.61118,-0.529167 0.07276,0 -0.08321,0.238125 -0.346597,0.529167 -0.263389,0.291042 -0.538421,0.529167 -0.611181,0.529167 -0.07276,0 0.08321,-0.238125 0.346598,-0.529167 z m 10.960182,-0.198438 -0.641433,-0.727604 0.727605,0.641433 c 0.680055,0.599516 0.848939,0.813776 0.641433,0.813776 -0.04739,0 -0.374816,-0.327422 -0.727605,-0.727605 z m -10.012898,-1.124479 c 0.385713,-0.809898 0.507924,-0.959998 0.507924,-0.623833 0,0.141961 -0.185162,0.489226 -0.411471,0.771701 -0.387979,0.484268 -0.393486,0.475826 -0.09645,-0.147868 z m 18.25625,0 c 0.385713,-0.809898 0.507924,-0.959998 0.507924,-0.623833 0,0.141961 -0.185162,0.489226 -0.411471,0.771701 -0.38798,0.484268 -0.393486,0.475826 -0.09645,-0.147868 z m -37.240672,-1.455208 c 0.0012,-1.018646 0.049,-1.402943 0.106272,-0.853995 0.05728,0.548949 0.05632,1.382387 -0.0021,1.852084 -0.05845,0.469697 -0.105312,0.02056 -0.104138,-0.998089 z m 27.951162,1.175957 c -0.160078,-0.299109 -0.251846,-0.66145 -0.203929,-0.805201 0.04792,-0.143752 0.22389,0.100974 0.391051,0.543835 0.347641,0.921005 0.243646,1.066262 -0.187122,0.261366 z m 20.469721,-1.572832 c 0,-1.091406 0.0467,-1.537891 0.103786,-0.992188 0.05708,0.545704 0.05708,1.438672 0,1.984375 -0.05708,0.545704 -0.103786,0.09922 -0.103786,-0.992187 z m -39.700779,-0.661458 c 0.002,-0.727605 0.05337,-0.993858 0.114185,-0.591675 0.06082,0.402183 0.05919,0.997496 -0.0036,1.322917 -0.0628,0.325421 -0.11256,-0.0036 -0.110574,-0.731242 z m 0.532778,-0.396875 c 0,-0.800365 0.0496,-1.127787 0.110223,-0.727605 0.06062,0.400183 0.06062,1.055026 0,1.455209 -0.06062,0.400182 -0.110223,0.07276 -0.110223,-0.727604 z m 17.71986,0.264583 c 0,-0.654844 0.0516,-0.922735 0.114662,-0.595313 0.06306,0.327422 0.06306,0.863204 0,1.190625 -0.06306,0.327422 -0.114662,0.05953 -0.114662,-0.595312 z m 0.453372,-0.45082 c -0.07071,-0.902795 -0.03245,-1.544874 0.08501,-1.426842 0.117466,0.118031 0.175318,0.856682 0.12856,1.641445 l -0.08501,1.426842 z m -15.143664,-0.518159 c 0.181901,-0.0734 0.479557,-0.0734 0.661459,0 0.181901,0.0734 0.03307,0.133453 -0.33073,0.133453 -0.363802,0 -0.51263,-0.06005 -0.330729,-0.133453 z m 17.581562,-0.406854 c -0.174625,-0.174625 -0.3175,-0.508 -0.3175,-0.740834 0,-1.026261 1.496252,-1.44295 2.137656,-0.595312 0.298066,0.393905 0.295003,0.413652 -0.02052,0.132291 -0.963029,-0.85876 -2.284437,-0.02471 -1.627484,1.027236 0.354114,0.567026 0.287055,0.635825 -0.172152,0.176619 z m -18.556978,-0.621771 c -0.02143,-0.693025 0.4676,-1.182054 1.160625,-1.160625 0.507952,0.01571 0.504196,0.03211 -0.05914,0.258359 -0.330845,0.132874 -0.710251,0.51228 -0.843125,0.843125 -0.226247,0.563337 -0.242653,0.567093 -0.258359,0.05914 z m 8.185312,0.161135 c 0,-0.136932 0.117699,-0.32171 0.261553,-0.410616 0.149981,-0.09269 0.194338,0.01351 0.103984,0.248968 -0.175893,0.458369 -0.365537,0.542234 -0.365537,0.161648 z m 18.25625,0 c 0,-0.136932 0.117698,-0.32171 0.261552,-0.410616 0.149982,-0.09269 0.194339,0.01351 0.103984,0.248968 -0.175892,0.458369 -0.365536,0.542234 -0.365536,0.161648 z m -10.169448,-0.731808 c -0.143585,-0.377083 -0.113194,-0.407474 0.148113,-0.148112 0.180821,0.179476 0.262115,0.39297 0.180653,0.474432 -0.08146,0.08146 -0.229406,-0.06538 -0.328766,-0.32632 z m 0.379864,-0.591108 c 0,-0.136933 0.117699,-0.32171 0.261553,-0.410617 0.149982,-0.09269 0.194339,0.01351 0.103984,0.248968 -0.175892,0.458369 -0.365537,0.542234 -0.365537,0.161649 z m 8.776431,-1.043828 -0.616279,-0.956162 0.713994,0.699041 c 0.392696,0.384473 0.670022,0.814746 0.616278,0.956162 -0.05374,0.141417 -0.375041,-0.173152 -0.713993,-0.699041 z m -18.036847,0.218848 c 0,-0.154109 0.119062,-0.206614 0.264583,-0.116677 0.145521,0.08994 0.264584,0.216026 0.264584,0.280198 0,0.06417 -0.119063,0.116677 -0.264584,0.116677 -0.145521,0 -0.264583,-0.126089 -0.264583,-0.280198 z m -8.466667,-0.230952 c 0,-0.135612 0.386954,-0.513099 0.859896,-0.838861 l 0.859896,-0.592294 -0.777105,0.838861 c -0.837952,0.904542 -0.942687,0.970348 -0.942687,0.592294 z m 18.388542,-0.2826 c 0.263389,-0.291041 0.524156,-0.529167 0.579483,-0.529167 0.05533,0 -0.02685,0.238126 -0.182608,0.529167 -0.155761,0.291042 -0.416528,0.529167 -0.579483,0.529167 -0.162955,0 -0.08078,-0.238125 0.182608,-0.529167 z m -10.749374,-0.463021 c -0.329108,-0.419644 -0.319749,-0.429002 0.09989,-0.09989 0.440729,0.345644 0.580887,0.562916 0.363126,0.562916 -0.05494,0 -0.263302,-0.208359 -0.463021,-0.463021 z m -15.555779,-2.866319 c 0.0127,-0.308225 0.07539,-0.370919 0.159852,-0.159853 0.07643,0.190997 0.06703,0.4192 -0.02089,0.507118 -0.08792,0.08792 -0.150453,-0.06835 -0.138964,-0.347265 z m 42.862499,-0.79375 c 0.0127,-0.308225 0.07539,-0.370919 0.159852,-0.159853 0.07643,0.190997 0.06703,0.4192 -0.02089,0.507118 -0.08792,0.08792 -0.150453,-0.06835 -0.138964,-0.347265 z m -42.811324,-1.962327 c 0,-0.654843 0.0516,-0.922734 0.114662,-0.595312 0.06306,0.327422 0.06306,0.863203 0,1.190625 -0.06306,0.327422 -0.114662,0.05953 -0.114662,-0.595313 z m 0.234296,-2.38125 c 0,-0.363802 0.06005,-0.51263 0.133452,-0.330729 0.0734,0.181901 0.0734,0.479558 0,0.661459 -0.0734,0.181901 -0.133452,0.03307 -0.133452,-0.33073 z m 3.397807,-7.508228 c 0,-0.05494 0.208359,-0.263301 0.463021,-0.463021 0.419644,-0.329107 0.429002,-0.319749 0.0999,0.09989 -0.345644,0.440729 -0.562916,0.580887 -0.562916,0.363126 z m 14.221354,-6.425333 c 0.181901,-0.0734 0.479557,-0.0734 0.661458,0 0.181901,0.0734 0.03307,0.133452 -0.330729,0.133452 -0.363802,0 -0.51263,-0.06005 -0.330729,-0.133452 z m 11.129036,-0.0055 c 0.190996,-0.07643 0.4192,-0.06703 0.507118,0.02089 0.08792,0.08792 -0.06835,0.150452 -0.347265,0.138964 -0.308225,-0.0127 -0.370919,-0.07539 -0.159853,-0.159853 z m -9.144661,-0.266226 c 0.254661,-0.06655 0.67138,-0.06655 0.926042,0 0.254661,0.06655 0.0463,0.121 -0.463021,0.121 -0.509323,0 -0.717682,-0.05445 -0.463021,-0.121 z m 6.884202,-9.7e-4 c 0.257431,-0.06708 0.614619,-0.06267 0.79375,0.0098 0.179132,0.07247 -0.03149,0.127362 -0.468056,0.121969 -0.436563,-0.0054 -0.583125,-0.06469 -0.325694,-0.131773 z"
         id="path15" /><path
         style="fill:#f4cfa3"
         d="m -68.041888,77.401381 c -3.550031,-0.550954 -6.258704,-1.946819 -7.562771,-3.897335 -0.745061,-1.1144 -1.785967,-4.565819 -1.785967,-5.92188 0,-0.40039 0.412005,-1.69057 0.915567,-2.867068 0.503562,-1.176497 1.04335,-2.613635 1.199529,-3.193638 0.353974,-1.31456 2.983341,-3.570863 4.467092,-3.833285 0.52714,-0.09323 1.196562,-0.234283 1.487603,-0.313448 0.291042,-0.07916 -0.0066,0.203724 -0.661458,0.62864 -1.796539,1.165742 -2.776049,3.10988 -2.769355,5.496635 0.0058,2.055598 0.424884,3.119116 1.806788,4.584743 1.630221,1.728987 4.184899,2.169587 6.39007,1.102083 2.067535,-1.000877 3.307748,-3.161129 3.297936,-5.744474 -0.01268,-3.33833 -2.036902,-5.75291 -5.376805,-6.413686 -0.921525,-0.182317 -0.973298,-0.222259 -0.319579,-0.246552 0.856023,-0.03181 3.548156,-0.803083 8.585173,-2.459574 3.102285,-1.020229 3.394751,-1.069042 5.402147,-0.901632 l 2.122294,0.176993 1.611888,1.709903 1.611889,1.709904 h -1.160996 c -1.554117,0 -3.80757,1.287588 -4.684417,2.676604 -1.526941,2.418832 -1.430389,5.496626 0.242007,7.71439 2.744879,3.639987 8.198962,2.784332 9.85262,-1.545711 0.536707,-1.405347 0.425971,-4.073646 -0.222651,-5.365021 l -0.444694,-0.885362 0.72003,0.477705 c 0.396016,0.262739 1.727131,1.044712 2.958033,1.737719 2.26882,1.277364 2.642692,1.298591 2.652737,0.150613 0.0022,-0.254661 0.121815,-0.46302 0.265749,-0.46302 0.165246,0 0.202559,0.902023 0.101239,2.447395 -0.463844,7.074755 -1.916555,10.380305 -5.256237,11.960228 -3.006592,1.422345 -3.997034,1.533245 -14.421283,1.614755 -5.31151,0.04153 -10.27239,-0.01995 -11.024178,-0.136624 z m 12.703984,-3.31882 c 1.13338,-0.540563 2.460665,-1.631779 2.247075,-1.847413 -0.09579,-0.09671 -0.682405,0.160513 -1.303594,0.571596 -0.989775,0.655003 -1.377272,0.747424 -3.133723,0.747424 -1.645221,0 -2.263165,-0.128116 -3.449322,-0.715139 -1.568295,-0.77614 -2.11483,-0.74214 -1.063372,0.06615 1.980584,1.522547 4.902973,2.035868 6.702936,1.177379 z m -1.469713,-5.026309 c 0.105438,-1.075694 -0.530436,-1.957894 -1.081544,-1.500515 -0.568546,0.471851 -0.799674,1.610116 -0.419865,2.067758 0.546725,0.658763 1.413331,0.331353 1.501409,-0.567243 z m 11.431574,-10.747921 c -0.922088,-0.808345 -0.922405,-0.809391 -0.07415,-0.245147 0.468542,0.311665 0.922053,0.680183 1.007802,0.818928 0.255232,0.412974 0.04356,0.282889 -0.933655,-0.573781 z m 9.037609,-5.523955 c 0,-0.363802 0.06005,-0.51263 0.133452,-0.330729 0.0734,0.181901 0.0734,0.479558 0,0.661459 -0.0734,0.181901 -0.133452,0.03307 -0.133452,-0.33073 z m -40.369992,-5.55625 c 0.462327,-1.712384 2.078306,-4.122175 3.466269,-5.168993 0.956359,-0.721296 0.938889,-0.682992 -0.323773,0.709888 -0.734073,0.809778 -1.78162,2.293178 -2.327881,3.296444 -0.546261,1.003266 -0.912838,1.526463 -0.814615,1.162661 z m 35.408285,-6.680729 -0.504027,-0.595312 0.595312,0.504028 c 0.327422,0.277215 0.595313,0.545106 0.595313,0.595312 0,0.211734 -0.212936,0.05542 -0.686598,-0.504028 z"
         id="path14" /><path
         style="fill:#b7d597"
         d="m -59.200522,79.861232 c 0.181901,-0.0734 0.479557,-0.0734 0.661458,0 0.181901,0.0734 0.03307,0.133452 -0.330729,0.133452 -0.363802,0 -0.51263,-0.06005 -0.330729,-0.133452 z m 2.910416,0 c 0.181901,-0.0734 0.479558,-0.0734 0.661459,0 0.181901,0.0734 0.03307,0.133452 -0.33073,0.133452 -0.363802,0 -0.51263,-0.06005 -0.330729,-0.133452 z m -4.216797,-0.270096 c 0.190997,-0.07643 0.4192,-0.06703 0.507119,0.02089 0.08792,0.08792 -0.06835,0.150453 -0.347266,0.138965 -0.308225,-0.0127 -0.370919,-0.07539 -0.159853,-0.159853 z m -8.020182,-12.082769 c -1.000162,-0.458899 -1.589203,-1.117657 -2.106576,-2.355905 -0.479318,-1.14717 -0.504844,-1.818505 -0.121619,-3.198625 0.357209,-1.28643 0.607729,-1.060476 0.548891,0.495069 -0.05587,1.477139 0.510678,2.630711 1.626004,3.310765 2.211229,1.348266 4.906931,-0.291531 4.975175,-3.026401 l 0.02708,-1.085352 0.217634,0.926042 c 0.763015,3.246658 -2.354917,6.224471 -5.166592,4.934407 z m 18.785417,0.163383 c -1.493103,-0.373844 -3.024757,-2.412127 -3.035422,-4.039457 -0.0052,-0.795219 0.510762,-2.745145 0.681278,-2.574629 0.06645,0.06645 0.152881,0.776329 0.19206,1.577502 0.08516,1.741358 0.676151,2.752825 1.909582,3.268185 1.151604,0.481171 1.808737,0.472943 2.790883,-0.03495 1.051145,-0.543568 1.819755,-1.858044 1.848996,-3.162154 0.02364,-1.054294 0.02467,-1.055304 0.270392,-0.264584 0.300143,0.965855 -0.102436,2.826892 -0.833649,3.853786 -0.280503,0.39393 -0.9902,0.908371 -1.577104,1.143204 -1.094156,0.437794 -1.331229,0.462387 -2.247016,0.233092 z m -19.387029,-7.896744 c 0.251197,-0.262262 0.513673,-0.419889 0.58328,-0.350281 0.06961,0.06961 -0.135917,0.284185 -0.456721,0.47684 -0.557295,0.334676 -0.562933,0.329038 -0.126559,-0.126559 z m 17.93182,0.317809 c 0,-0.05494 0.20836,-0.263302 0.463021,-0.463021 0.419644,-0.329107 0.429002,-0.319749 0.0999,0.0999 -0.345644,0.440729 -0.562916,0.580887 -0.562916,0.363126 z"
         id="path13" /><path
         style="fill:#d6b68f"
         d="m -63.789723,83.409898 -0.504028,-0.595313 0.595312,0.504028 c 0.559447,0.473662 0.715762,0.686597 0.504028,0.686597 -0.05021,0 -0.318097,-0.267891 -0.595312,-0.595312 z m -1.992986,-1.984375 c -0.329107,-0.419644 -0.319749,-0.429003 0.0999,-0.0999 0.254662,0.199719 0.463021,0.408078 0.463021,0.463021 0,0.217761 -0.217272,0.0776 -0.562916,-0.363126 z m 15.908749,0.363126 c 0,-0.05494 0.208359,-0.263302 0.463021,-0.463021 0.419644,-0.329108 0.429002,-0.319749 0.09989,0.0999 -0.345644,0.440729 -0.562916,0.580887 -0.562916,0.363126 z m 1.455208,-1.487606 c 0.263389,-0.291041 0.538421,-0.529166 0.611181,-0.529166 0.07276,0 -0.08321,0.238125 -0.346597,0.529166 -0.263389,0.291042 -0.538421,0.529167 -0.611181,0.529167 -0.07276,0 0.08321,-0.238125 0.346597,-0.529167 z m -18.967317,-2.826574 c 0.190996,-0.07643 0.419199,-0.06703 0.507118,0.02089 0.08792,0.08792 -0.06835,0.150452 -0.347266,0.138964 -0.308224,-0.0127 -0.370919,-0.07539 -0.159852,-0.159854 z m 18.25625,0 c 0.190996,-0.07643 0.419199,-0.06703 0.507118,0.02089 0.08792,0.08792 -0.06835,0.150452 -0.347266,0.138964 -0.308224,-0.0127 -0.370919,-0.07539 -0.159852,-0.159854 z m -8.880078,-3.70581 c 0.254661,-0.06655 0.67138,-0.06655 0.926041,0 0.254662,0.06655 0.0463,0.121 -0.463021,0.121 -0.509322,0 -0.717682,-0.05445 -0.46302,-0.121 z m 4.363329,-0.900293 c 0.180639,-0.231671 0.250092,-0.499561 0.15434,-0.595313 -0.09575,-0.09575 -0.03519,-0.174093 0.134588,-0.174093 0.452987,0 0.37626,0.411373 -0.154341,0.827499 -0.409674,0.321289 -0.42518,0.314595 -0.134587,-0.05809 z m -8.783801,-0.221957 c -0.08372,-0.135466 -0.05106,-0.308822 0.07258,-0.385236 0.123642,-0.07641 0.224802,0.03442 0.224802,0.246301 0,0.446131 -0.08343,0.485111 -0.297382,0.138935 z m 4.121343,-3.022914 c -0.379809,-0.457642 -0.148681,-1.595907 0.419865,-2.067758 0.551108,-0.457379 1.186982,0.424821 1.081544,1.500515 -0.08808,0.898596 -0.954684,1.226006 -1.501409,0.567243 z m 20.626787,-2.441375 c 0.0127,-0.308225 0.07539,-0.37092 0.159853,-0.159853 0.07643,0.190996 0.06703,0.419199 -0.02089,0.507118 -0.08792,0.08792 -0.150453,-0.06835 -0.138965,-0.347265 z m 0.310419,-3.152952 c 0.0029,-0.582083 0.05712,-0.789054 0.120406,-0.459936 0.06329,0.329119 0.06088,0.805369 -0.0053,1.058334 -0.06622,0.252964 -0.118003,-0.01631 -0.115066,-0.598398 z m -41.829113,-9.657292 c 0,-0.363802 0.06005,-0.51263 0.133452,-0.330729 0.0734,0.181901 0.0734,0.479558 0,0.661459 -0.0734,0.181901 -0.133452,0.03307 -0.133452,-0.33073 z m 0.243695,-3.064757 c 0.0127,-0.308224 0.07539,-0.370919 0.159852,-0.159852 0.07643,0.190996 0.06703,0.419199 -0.02089,0.507118 -0.08792,0.08792 -0.150452,-0.06835 -0.138964,-0.347266 z m 3.02182,-7.783159 c 0.263389,-0.291042 0.538421,-0.529167 0.611181,-0.529167 0.07276,0 -0.08321,0.238125 -0.346598,0.529167 -0.263389,0.291041 -0.53842,0.529166 -0.61118,0.529166 -0.07276,0 0.08321,-0.238125 0.346597,-0.529166 z m 1.455208,-1.422812 c 0,-0.05494 0.20836,-0.263301 0.463021,-0.463021 0.419644,-0.329107 0.429003,-0.319749 0.0999,0.0999 -0.345644,0.440729 -0.562916,0.580887 -0.562916,0.363126 z m 17.669807,-5.916308 c 0.768862,-0.05362 1.959487,-0.05305 2.645833,0.0013 0.686346,0.0543 0.05728,0.09817 -1.397932,0.09748 -1.455208,-6.89e-4 -2.016764,-0.04512 -1.247901,-0.09874 z"
         id="path12" /><path
         style="fill:#d9c573"
         d="m -77.65521,65.318542 c 0,-1.521364 0.05467,-1.654131 1.190625,-2.89142 0.654844,-0.71326 1.190625,-1.143864 1.190625,-0.956898 0,0.442153 -1.821021,4.863981 -2.138011,5.191548 -0.148827,0.153793 -0.243239,-0.367576 -0.243239,-1.34323 z m 37.058473,-3.606535 c -1.373204,-0.762853 -3.070541,-1.958919 -3.771861,-2.657924 -0.701319,-0.699005 -1.676774,-1.438738 -2.167678,-1.643851 -1.107381,-0.462693 -2.275133,-1.432192 -3.331352,-2.765777 l -0.809031,-1.021486 1.65812,0.383871 c 3.330333,0.771003 5.9025,2.26939 9.34389,5.443177 2.043881,1.884948 2.120719,1.997893 1.910664,2.808519 -0.12037,0.464525 -0.245216,0.843665 -0.277436,0.842533 -0.03222,-0.0011 -1.182111,-0.62621 -2.555316,-1.389062 z m -37.043904,-3.142913 -0.01457,-2.549657 0.79375,-0.116498 c 0.436563,-0.06407 0.79375,-0.08534 0.79375,-0.04726 0,0.03808 -0.129798,0.404417 -0.288441,0.814072 -0.158643,0.409656 -0.509274,1.578266 -0.779182,2.596912 l -0.49074,1.852084 z m 6.783261,-1.274662 c 2.880785,-1.756531 6.802328,-3.054821 10.816779,-3.58107 1.677496,-0.2199 3.371317,-0.39143 3.764046,-0.381176 0.634693,0.01657 0.59643,0.06219 -0.34428,0.410488 -2.092027,0.774568 -8.755743,2.795566 -9.921875,3.009146 -0.654843,0.119936 -1.42875,0.278412 -1.719791,0.352169 -3.251059,0.823898 -3.686142,0.855829 -2.594879,0.190443 z m 32.82835,-2.544894 c -0.683435,-1.460545 -0.683918,-1.466414 -0.114074,-1.385231 0.473125,0.0674 0.599999,0.310719 0.732328,1.404444 0.08803,0.727605 0.139366,1.350959 0.114074,1.385232 -0.02529,0.03427 -0.354839,-0.597727 -0.732328,-1.404445 z m -39.357545,-5.603182 c -0.0022,-0.327422 0.115011,-0.595313 0.260532,-0.595313 0.331503,0 0.331503,0.280787 0,0.79375 -0.2074,0.320929 -0.257255,0.282956 -0.260532,-0.198437 z m 0.436921,-1.036285 c -0.09701,-0.09701 -0.176389,-0.29942 -0.176389,-0.449792 0,-0.165789 0.123235,-0.150167 0.31309,0.03969 0.1722,0.172199 0.251575,0.374606 0.176389,0.449791 -0.07518,0.07519 -0.216076,0.05733 -0.31309,-0.03969 z m 2.469444,-4.421423 c 0,-0.05494 0.20836,-0.263301 0.463021,-0.463021 0.419644,-0.329107 0.429003,-0.319749 0.0999,0.09989 -0.345644,0.440729 -0.562916,0.580887 -0.562916,0.363126 z m 1.28675,-1.830778 c 0.19839,-0.244613 0.466281,-0.379504 0.595313,-0.299757 0.129032,0.07975 0.234604,0.02862 0.234604,-0.113626 0,-0.261401 1.606858,-1.360111 1.989157,-1.360111 0.21266,0 -2.01605,1.698209 -2.25374,1.71728 -0.07276,0.0058 -0.310886,0.120944 -0.529167,0.25579 -0.34179,0.211145 -0.34681,0.183445 -0.03617,-0.199576 z"
         id="path11" /><path
         style="fill:#c8ae6d"
         d="m -64.848057,82.351564 -0.504028,-0.595312 0.595313,0.504028 c 0.559447,0.473662 0.715761,0.686597 0.504028,0.686597 -0.05021,0 -0.318097,-0.267891 -0.595313,-0.595313 z m 13.915764,0.230835 c 0,-0.05494 0.208359,-0.263302 0.463021,-0.463021 0.419643,-0.329108 0.429002,-0.319749 0.09989,0.0999 -0.345643,0.440729 -0.562915,0.580887 -0.562915,0.363126 z m 5.14273,-1.553751 -0.777105,-0.859896 0.859895,0.777105 c 0.801544,0.724371 0.981512,0.942686 0.777106,0.942686 -0.04554,0 -0.432488,-0.386953 -0.859896,-0.859895 z m -20.786896,-0.661459 c -0.329107,-0.419644 -0.319749,-0.429002 0.0999,-0.09989 0.254662,0.19972 0.463021,0.408079 0.463021,0.463021 0,0.217761 -0.217272,0.0776 -0.562916,-0.363126 z m 23.250936,-1.046621 c 0.327422,-0.06306 0.863204,-0.06306 1.190625,0 0.327422,0.06306 0.05953,0.114662 -0.595312,0.114662 -0.654844,0 -0.922734,-0.0516 -0.595313,-0.114662 z m -34.547117,-20.331712 0.04715,-2.897188 0.158417,2.645834 c 0.08713,1.455208 0.06591,2.758942 -0.04715,2.897187 -0.113064,0.138245 -0.184352,-1.05238 -0.158417,-2.645833 z m 0.502902,1.049514 c 0.0127,-0.308225 0.07539,-0.37092 0.159852,-0.159853 0.07643,0.190996 0.06703,0.419199 -0.02089,0.507118 -0.08792,0.08792 -0.150453,-0.06835 -0.138964,-0.347265 z m 35.928696,-2.160764 c -0.329108,-0.419644 -0.31975,-0.429003 0.09989,-0.0999 0.44073,0.345643 0.580887,0.562915 0.363126,0.562915 -0.05494,0 -0.263301,-0.208359 -0.46302,-0.46302 z m 3.887218,-2.26037 c 0.09936,-0.260937 0.247304,-0.407781 0.328765,-0.326319 0.08146,0.08146 1.68e-4,0.294956 -0.180653,0.474432 -0.261307,0.259362 -0.291698,0.228971 -0.148112,-0.148113 z m -23.217662,-1.955267 c 0.190996,-0.07643 0.419199,-0.06703 0.507118,0.02089 0.08792,0.08792 -0.06835,0.150453 -0.347265,0.138965 -0.308225,-0.0127 -0.37092,-0.07539 -0.159853,-0.159853 z m 2.10013,-0.259071 c 0.181901,-0.0734 0.479558,-0.0734 0.661459,0 0.181901,0.0734 0.03307,0.133452 -0.33073,0.133452 -0.363802,0 -0.51263,-0.06005 -0.330729,-0.133452 z m 7.160287,-0.0055 c 0.190996,-0.07643 0.419199,-0.06703 0.507118,0.02089 0.08792,0.08792 -0.06835,0.150453 -0.347266,0.138964 -0.308224,-0.0127 -0.370919,-0.07539 -0.159852,-0.159852 z m -3.188452,-0.270972 c 0.329119,-0.06329 0.805369,-0.06088 1.058333,0.0053 0.252965,0.06622 -0.01631,0.118003 -0.598397,0.115067 -0.582083,-0.0029 -0.789054,-0.05712 -0.459936,-0.120406 z m -23.972246,-2.987871 c 0,-0.363802 0.06005,-0.51263 0.133453,-0.330729 0.0734,0.181901 0.0734,0.479557 0,0.661458 -0.0734,0.181901 -0.133453,0.03307 -0.133453,-0.330729 z m 1.016557,-0.264583 c 0,-0.493889 0.07056,-0.564445 0.3175,-0.3175 0.246945,0.246944 0.246945,0.388055 0,0.635 -0.246944,0.246944 -0.3175,0.176389 -0.3175,-0.3175 z m 3.439584,-7.276042 c 0.341774,-0.363802 0.680939,-0.661458 0.753699,-0.661458 0.07276,0 -0.147342,0.297656 -0.489116,0.661458 -0.341774,0.363802 -0.680939,0.661458 -0.753699,0.661458 -0.07276,0 0.147341,-0.297656 0.489116,-0.661458 z m -1.058334,0.29698 c 0,-0.05494 0.20836,-0.263301 0.463021,-0.463021 0.419644,-0.329107 0.429003,-0.319749 0.0999,0.09989 -0.345644,0.440729 -0.562916,0.580887 -0.562916,0.363126 z m 1.984375,-0.429272 c 0.26339,-0.291041 0.538421,-0.529166 0.611181,-0.529166 0.07276,0 -0.08321,0.238125 -0.346597,0.529166 -0.263389,0.291042 -0.538421,0.529167 -0.611181,0.529167 -0.07276,0 0.08321,-0.238125 0.346597,-0.529167 z m 2.775806,-2.516336 c -0.286047,-0.344666 -0.264751,-0.378427 0.140591,-0.222883 0.309662,0.118829 0.41577,0.0831 0.301642,-0.10156 -0.112521,-0.182062 0.01883,-0.233906 0.363965,-0.143651 0.297015,0.07767 0.505538,0.159789 0.463386,0.182485 -0.04215,0.0227 -0.269202,0.187637 -0.504556,0.366535 -0.345302,0.262472 -0.492999,0.246848 -0.765028,-0.08093 z m 7.60909,-2.950559 c 0.181901,-0.0734 0.479557,-0.0734 0.661458,0 0.181901,0.0734 0.03307,0.133452 -0.330729,0.133452 -0.363802,0 -0.51263,-0.06005 -0.330729,-0.133452 z m 1.322917,-0.264583 c 0.181901,-0.0734 0.479557,-0.0734 0.661458,0 0.181901,0.0734 0.03307,0.133452 -0.330729,0.133452 -0.363802,0 -0.51263,-0.06005 -0.330729,-0.133452 z m 2.119751,-0.276484 c 0.329119,-0.06329 0.805369,-0.06088 1.058333,0.0053 0.252965,0.06622 -0.01631,0.118003 -0.598397,0.115066 -0.582083,-0.0029 -0.789054,-0.05712 -0.459936,-0.120405 z"
         id="path10" /><path
         style="fill:#a3a798"
         d="m -57.874521,79.849331 c 0.329119,-0.06329 0.805369,-0.06088 1.058333,0.0053 0.252965,0.06622 -0.01631,0.118003 -0.598397,0.115067 -0.582083,-0.0029 -0.789054,-0.05712 -0.459936,-0.120406 z m -5.290013,-2.121289 c 0.475549,-0.05889 1.189924,-0.05767 1.5875,0.0027 0.397576,0.06037 0.0085,0.10855 -0.864634,0.107065 -0.873125,-0.0015 -1.198415,-0.05088 -0.722866,-0.109765 z m 22.550991,-1.743122 c 0,-0.04554 0.386953,-0.432488 0.859895,-0.859896 l 0.859896,-0.777106 -0.777105,0.859896 c -0.724371,0.801544 -0.942686,0.981512 -0.942686,0.777106 z m -35.08243,-0.777106 -0.504028,-0.595312 0.595312,0.504028 c 0.559447,0.473662 0.715762,0.686597 0.504028,0.686597 -0.05021,0 -0.318097,-0.267891 -0.595312,-0.595313 z m 35.214721,-0.727604 c 0.263389,-0.291042 0.538421,-0.529167 0.611181,-0.529167 0.07276,0 -0.08321,0.238125 -0.346597,0.529167 -0.26339,0.291042 -0.538421,0.529167 -0.611181,0.529167 -0.07276,0 0.08321,-0.238125 0.346597,-0.529167 z m -23.151041,-7.276042 c 0.341774,-0.363802 0.680939,-0.661458 0.753699,-0.661458 0.07276,0 -0.147341,0.297656 -0.489116,0.661458 -0.341774,0.363802 -0.680939,0.661459 -0.753699,0.661459 -0.07276,0 0.147342,-0.297657 0.489116,-0.661459 z m 18.388541,-0.132291 c 0.263389,-0.291042 0.538421,-0.529167 0.611181,-0.529167 0.07276,0 -0.08321,0.238125 -0.346597,0.529167 -0.263389,0.291041 -0.538421,0.529166 -0.611181,0.529166 -0.07276,0 0.08321,-0.238125 0.346597,-0.529166 z m 8.640735,0 c 0,-0.363803 0.06005,-0.512631 0.133452,-0.33073 0.0734,0.181901 0.0734,0.479558 0,0.661459 -0.0734,0.181901 -0.133452,0.03307 -0.133452,-0.330729 z m -43.747635,-0.180741 c 0.190996,-0.07643 0.419199,-0.06703 0.507118,0.02089 0.08792,0.08792 -0.06835,0.150453 -0.347266,0.138964 -0.308224,-0.0127 -0.370919,-0.07539 -0.159852,-0.159852 z m 1.678885,-0.348426 c 0,-0.363802 0.06005,-0.51263 0.133453,-0.330729 0.0734,0.181901 0.0734,0.479557 0,0.661458 -0.0734,0.181901 -0.133453,0.03307 -0.133453,-0.330729 z m 43.729011,0.181434 c -0.07339,-0.191253 -0.09494,-1.649769 -0.04789,-3.241146 l 0.08555,-2.893413 0.05619,3.089454 c 0.04896,2.69166 0.115811,3.105033 0.519214,3.210454 0.43394,0.1134 0.433418,0.122927 -0.0083,0.151692 -0.259229,0.01688 -0.531372,-0.125788 -0.604764,-0.317041 z m -16.146968,-1.570497 -0.504028,-0.595312 0.595313,0.504028 c 0.559447,0.473662 0.715761,0.686597 0.504028,0.686597 -0.05021,0 -0.318097,-0.267891 -0.595313,-0.595313 z m 14.7915,-1.918229 c 0.0015,-0.873125 0.05088,-1.198414 0.109766,-0.722866 0.05889,0.475549 0.05767,1.189924 -0.0027,1.587501 -0.06037,0.397576 -0.108551,0.0085 -0.107066,-0.864635 z m -25.685185,0.396875 c 0,-0.509323 0.05445,-0.717682 0.121,-0.463021 0.06655,0.254662 0.06655,0.671381 0,0.926042 -0.06655,0.254662 -0.121,0.0463 -0.121,-0.463021 z m 18.215754,0.374827 c 0.0127,-0.308225 0.07539,-0.37092 0.159852,-0.159853 0.07643,0.190996 0.06703,0.419199 -0.02089,0.507118 -0.08792,0.08792 -0.150453,-0.06835 -0.138964,-0.347265 z m -35.11509,-3.549827 c 0,-1.382448 0.04459,-1.947995 0.0991,-1.256771 0.0545,0.691224 0.0545,1.822318 0,2.513542 -0.0545,0.691224 -0.0991,0.125677 -0.0991,-1.256771 z m -2.489556,0.72071 c 0.128784,-1.090073 0.134299,-1.095589 0.224044,-0.224045 0.05061,0.491447 -0.0088,0.99436 -0.132035,1.117584 -0.123224,0.123225 -0.164629,-0.278868 -0.09201,-0.893539 z m 47.963891,0.07304 c 0,-0.509323 0.05445,-0.717682 0.121,-0.463021 0.06655,0.254662 0.06655,0.671381 0,0.926042 -0.06655,0.254661 -0.121,0.0463 -0.121,-0.463021 z m -16.180078,0.110243 c 0.0127,-0.308224 0.07539,-0.370919 0.159852,-0.159852 0.07643,0.190996 0.06703,0.419199 -0.02089,0.507118 -0.08792,0.08792 -0.150453,-0.06835 -0.138964,-0.347266 z m -30.396391,-1.036284 c 0.0054,-0.436563 0.06469,-0.583125 0.131773,-0.325694 0.06708,0.257431 0.06267,0.614618 -0.0098,0.79375 -0.07247,0.179131 -0.127361,-0.03149 -0.121969,-0.468056 z m 10.134878,-0.132292 c 0.263389,-0.291042 0.53842,-0.529167 0.611181,-0.529167 0.07276,0 -0.08321,0.238125 -0.346598,0.529167 -0.263389,0.291042 -0.53842,0.529167 -0.611181,0.529167 -0.07276,0 0.08321,-0.238125 0.346598,-0.529167 z m 18.256249,0 c 0.263389,-0.291042 0.538421,-0.529167 0.611181,-0.529167 0.07276,0 -0.08321,0.238125 -0.346597,0.529167 -0.263389,0.291042 -0.538421,0.529167 -0.611181,0.529167 -0.07276,0 0.08321,-0.238125 0.346597,-0.529167 z m 15.23443,-0.418924 c 0.0127,-0.308224 0.07539,-0.370919 0.159852,-0.159852 0.07643,0.190996 0.06703,0.419199 -0.02089,0.507118 -0.08792,0.08792 -0.150453,-0.06835 -0.138964,-0.347266 z m -13.849777,-0.407658 c 0.179476,-0.180821 0.39297,-0.262115 0.474432,-0.180653 0.08146,0.08146 -0.06538,0.229406 -0.32632,0.328766 -0.377083,0.143585 -0.407474,0.113194 -0.148112,-0.148113 z m 16.07518,0.02852 c -0.0914,-0.147895 -0.277025,-0.200399 -0.41249,-0.116677 -0.135466,0.08372 -0.246301,0.02613 -0.246301,-0.127976 0,-0.404638 0.411269,-0.344184 0.79375,0.116677 0.181157,0.218281 0.262294,0.396875 0.180303,0.396875 -0.08199,0 -0.223858,-0.121004 -0.315262,-0.268899 z m -34.0459,-0.176425 c 0.190996,-0.07643 0.419199,-0.06703 0.507118,0.02089 0.08792,0.08792 -0.06835,0.150453 -0.347266,0.138965 -0.308224,-0.0127 -0.370919,-0.07539 -0.159852,-0.159853 z m 31.884295,-2.465093 c 0,-0.945885 0.04802,-1.332838 0.106712,-0.859895 0.05869,0.472942 0.05869,1.246849 0,1.719791 -0.05869,0.472943 -0.106712,0.08599 -0.106712,-0.859896 z m -0.328381,-2.800173 c 0.0127,-0.308225 0.07539,-0.370919 0.159852,-0.159853 0.07643,0.190997 0.06703,0.4192 -0.02089,0.507118 -0.08792,0.08792 -0.150453,-0.06835 -0.138964,-0.347265 z"
         id="path9" /><path
         style="fill:#ba9c5b"
         d="m -61.142498,83.771705 c -2.213087,-1.046976 -2.869789,-1.242876 -2.638298,-0.787028 0.100291,0.197491 -0.599174,-0.468848 -1.554367,-1.480754 -1.830357,-1.939032 -2.224373,-2.637682 -1.009109,-1.789305 0.400182,0.279368 1.708995,1.014663 2.908473,1.63399 2.011021,1.038349 4.784073,3.149973 4.169131,3.174709 -0.145521,0.0059 -0.989645,-0.332372 -1.87583,-0.751612 z m 17.368208,-1.381436 c -1.069777,-0.427251 -1.423057,-0.808155 -1.018965,-1.098642 0.25117,-0.180556 0.221769,-0.207841 -0.109598,-0.101707 -0.307152,0.09838 -0.748303,-0.200123 -1.371143,-0.927773 -0.578688,-0.676066 -1.037886,-0.998903 -1.241675,-0.872955 -0.206754,0.127781 -0.255296,0.0897 -0.134596,-0.105602 0.103833,-0.168005 0.439729,-0.305463 0.746436,-0.305463 0.306707,0 0.482311,0.07534 0.390232,0.167416 -0.09208,0.09208 0.129875,0.401266 0.493231,0.687082 0.530979,0.417668 0.736942,0.456346 1.049361,0.197062 0.60768,-0.50433 0.479264,-0.665557 -0.868057,-1.089851 l -1.256771,-0.395778 1.455208,-0.3485 c 0.800365,-0.191675 2.005056,-0.562334 2.677091,-0.823687 1.045403,-0.406554 1.37905,-0.42878 2.310058,-0.153886 0.598497,0.176715 1.223675,0.456799 1.389285,0.622409 0.486051,0.486051 -1.598861,1.402316 -3.190893,1.402316 -0.733402,0 -1.332959,0.02977 -1.33235,0.06615 6.09e-4,0.03638 0.298265,0.651871 0.661458,1.367758 0.994877,1.960993 0.86048,2.316241 -0.648312,1.713655 z m -14.231969,-2.279086 c 0.402183,-0.06081 0.997495,-0.05919 1.322916,0.0036 0.325421,0.0628 -0.0036,0.11256 -0.731242,0.110574 -0.727604,-0.002 -0.993858,-0.05337 -0.591674,-0.114186 z m 2.791023,-0.255464 c 0.190996,-0.07643 0.419199,-0.06703 0.507118,0.02089 0.08792,0.08792 -0.06835,0.150452 -0.347266,0.138964 -0.308224,-0.0127 -0.370919,-0.07539 -0.159852,-0.159854 z m 2.430859,-0.716993 c 0,-0.05719 0.184778,-0.17489 0.410617,-0.261553 0.23546,-0.09035 0.341662,-0.046 0.248969,0.103984 -0.155379,0.251408 -0.659586,0.371858 -0.659586,0.157569 z m -11.691275,-1.399673 c 0.190996,-0.07643 0.419199,-0.06703 0.507118,0.02089 0.08792,0.08792 -0.06835,0.150453 -0.347266,0.138964 -0.308225,-0.0127 -0.370919,-0.07539 -0.159852,-0.159852 z m 3.68763,0.0055 c 0.181901,-0.0734 0.479557,-0.0734 0.661458,0 0.181901,0.0734 0.03307,0.133452 -0.330729,0.133452 -0.363802,0 -0.51263,-0.06005 -0.330729,-0.133452 z m 6.895703,-0.0055 c 0.190996,-0.07643 0.419199,-0.06703 0.507118,0.02089 0.08792,0.08792 -0.06835,0.150453 -0.347266,0.138964 -0.308224,-0.0127 -0.370919,-0.07539 -0.159852,-0.159852 z M -77.873603,63.038969 c -0.0012,-0.690131 0.09669,-1.315833 0.21742,-1.390449 0.120732,-0.07462 0.303723,-0.641058 0.406646,-1.258759 0.102924,-0.617701 0.432755,-1.896999 0.732959,-2.842885 0.300204,-0.945885 0.533871,-1.779507 0.519259,-1.852493 -0.07936,-0.39642 1.582501,-2.376353 2.718499,-3.238799 2.603476,-1.976552 7.773576,-4.077912 11.515976,-4.680608 1.94597,-0.313389 8.798822,0.0596 11.359717,0.618298 3.698669,0.806915 5.596773,2.259843 5.658963,4.331727 0.02505,0.834516 -0.06263,0.998501 -0.572567,1.07086 -0.331181,0.04699 -1.343212,-0.160739 -2.248958,-0.46163 -3.934036,-1.306893 -12.019868,-1.244235 -16.769533,0.129949 -5.962771,1.725164 -11.656759,5.903062 -13.060781,9.583199 l -0.475508,1.246373 z m 2.599643,-2.399883 c 0,-0.04554 0.386954,-0.432488 0.859896,-0.859896 l 0.859896,-0.777105 -0.777105,0.859896 c -0.724371,0.801543 -0.942687,0.981512 -0.942687,0.777105 z m 7.871354,-3.532021 c 0.181902,-0.0734 0.479558,-0.0734 0.661459,0 0.181901,0.0734 0.03307,0.133452 -0.330729,0.133452 -0.363802,0 -0.512631,-0.06005 -0.33073,-0.133452 z m -11.554632,-1.566612 c 0.0127,-0.308225 0.07539,-0.370919 0.159852,-0.159853 0.07643,0.190997 0.06703,0.4192 -0.02089,0.507118 -0.08792,0.08792 -0.150452,-0.06835 -0.138964,-0.347265 z m -0.0022,-2.22691 c -0.02563,-0.913873 0.696943,-4.594079 1.183224,-6.026385 1.023963,-3.016014 3.428216,-5.592916 6.90661,-7.402576 3.808727,-1.981518 8.110998,-3.062772 13.508994,-3.395105 2.41988,-0.148982 2.758728,-0.104593 5.105446,0.668807 4.374174,1.441583 5.929869,2.933772 6.751296,6.475696 0.491584,2.119667 0.314284,3.168695 -0.501197,2.965427 -1.950041,-0.48607 -6.024591,-0.741767 -9.557391,-0.59977 -8.14155,0.32724 -14.38849,2.36618 -19.15682,6.252599 -1.999346,1.629564 -2.863088,1.918923 -3.486343,1.167947 -0.31841,-0.38366 -0.368354,-0.377576 -0.542967,0.06615 -0.160904,0.408887 -0.19533,0.380676 -0.210852,-0.172786 z m 2.098174,-4.365625 c 1.031779,-3.322501 3.506716,-6.65803 6.217559,-8.379543 0.873125,-0.554476 1.403394,-1.009269 1.178375,-1.010652 -0.926187,-0.0057 -4.535828,2.709973 -5.694931,4.284503 -1.072392,1.456741 -2.494903,5.009223 -2.494903,6.2306 0,0.670847 0.421875,0.07308 0.7939,-1.124908 z m 20.406749,-4.250906 c 0.933017,-0.482482 1.636502,-1.94092 1.396829,-2.895852 -0.250213,-0.996929 -1.572866,-1.981367 -2.662089,-1.981367 -2.539647,0 -3.447987,3.664432 -1.209466,4.879234 0.934217,0.506981 1.491314,0.506527 2.474726,-0.002 z m -3.275128,8.705886 c 0.181901,-0.0734 0.479557,-0.0734 0.661458,0 0.181901,0.0734 0.03307,0.133452 -0.330729,0.133452 -0.363802,0 -0.51263,-0.06005 -0.330729,-0.133452 z m 2.910417,-0.27608 c 0.327422,-0.06306 0.863203,-0.06306 1.190625,0 0.327421,0.06306 0.05953,0.114662 -0.595313,0.114662 -0.654844,0 -0.922734,-0.0516 -0.595312,-0.114662 z m 3.704166,0.0115 c 0.181901,-0.0734 0.479558,-0.0734 0.661459,0 0.181901,0.0734 0.03307,0.133452 -0.33073,0.133452 -0.363802,0 -0.51263,-0.06005 -0.330729,-0.133452 z m 14.2875,0 c 0.181901,-0.0734 0.479557,-0.0734 0.661458,0 0.181901,0.0734 0.03307,0.133452 -0.330729,0.133452 -0.363802,0 -0.51263,-0.06005 -0.330729,-0.133452 z m 2.203701,-1.566612 c 0.0127,-0.308225 0.07539,-0.370919 0.159852,-0.159853 0.07643,0.190996 0.06703,0.4192 -0.02089,0.507118 -0.08792,0.08792 -0.150453,-0.06835 -0.138964,-0.347265 z M -48.865236,36.993219 c 0.190996,-0.07643 0.419199,-0.06703 0.507118,0.02089 0.08792,0.08792 -0.06835,0.150453 -0.347266,0.138964 -0.308224,-0.01269 -0.370919,-0.07539 -0.159852,-0.159852 z m -3.583376,-0.53178 c 0.257431,-0.06708 0.614619,-0.06267 0.79375,0.0098 0.179132,0.07248 -0.03149,0.127362 -0.468056,0.12197 -0.436563,-0.0054 -0.583125,-0.06469 -0.325694,-0.131774 z"
         id="path8" /><path
         style="fill:#a8884e"
         d="m -60.376336,85.646553 c -1.805851,-1.079746 -3.674374,-2.634038 -3.443777,-2.864634 0.08112,-0.08112 1.094287,0.279996 2.251478,0.802482 1.157192,0.522487 2.199051,0.949976 2.315242,0.949976 0.407618,0 -1.054528,-1.341598 -2.379264,-2.183102 -0.735998,-0.467524 -1.3787,-0.943997 -1.428228,-1.058829 -0.04953,-0.114833 -0.449585,-0.394709 -0.889017,-0.621948 -0.439432,-0.227239 -0.720147,-0.285629 -0.623812,-0.129756 0.107657,0.174193 0.0175,0.222911 -0.233943,0.126421 -0.225003,-0.08634 -0.346915,-0.257598 -0.270914,-0.380569 0.182405,-0.295138 -0.869996,-0.850688 -1.211579,-0.639578 -0.146119,0.09031 -0.232955,0.0065 -0.192969,-0.186202 0.03999,-0.192718 -0.127255,-0.351914 -0.371646,-0.35377 -0.24439,-0.0019 -0.520428,-0.07946 -0.613417,-0.172446 -0.09299,-0.09299 0.969548,-0.151001 2.361194,-0.128917 1.391646,0.02208 2.530887,0.126125 2.531647,0.2312 0.0031,0.429607 3.149634,1.105014 5.160756,1.107764 1.592031,0.0022 2.641303,-0.171779 4.233333,-0.701832 2.476271,-0.824452 5.714433,-1.028989 7.474479,-0.472121 1.21425,0.384181 1.336629,0.560323 0.735766,1.058995 -0.312419,0.259284 -0.518382,0.220606 -1.049361,-0.197062 -0.363356,-0.285816 -0.58531,-0.595003 -0.493231,-0.687082 0.09208,-0.09208 -0.02054,-0.167416 -0.250277,-0.167416 -0.229732,0 -1.178843,0.753692 -2.109136,1.674873 -2.028702,2.008829 -4.327563,3.609369 -6.903514,4.806445 -2.76332,1.284148 -2.764925,1.284214 -4.59981,0.187108 z m 11.510421,-5.826326 c -0.06237,-0.5399 -0.24576,-0.728844 -0.766109,-0.789331 -0.82363,-0.09574 -1.40657,0.51841 -1.177405,1.240444 0.362894,1.143377 2.081633,0.744437 1.943514,-0.451113 z m -29.03299,-15.283941 c 0.0127,-0.308224 0.07539,-0.370919 0.159853,-0.159852 0.07643,0.190996 0.06703,0.419199 -0.02089,0.507118 -0.08792,0.08792 -0.150453,-0.06835 -0.138965,-0.347266 z m 1.053159,-2.785438 c 0.278014,-0.519472 0.727972,-0.854173 1.255823,-0.934141 0.265263,-0.04019 0.27473,0.03292 0.04077,0.31483 -0.167599,0.201944 -0.442134,0.341213 -0.610078,0.309485 -0.167944,-0.03173 -0.292123,0.130828 -0.275954,0.361236 0.01617,0.230408 -0.126229,0.418924 -0.316438,0.418924 -0.249428,0 -0.275666,-0.131114 -0.09412,-0.470334 z m 37.799677,-1.756576 -0.641433,-0.727604 0.727604,0.641433 c 0.400183,0.352788 0.727604,0.68021 0.727604,0.727604 0,0.207506 -0.214259,0.03862 -0.813775,-0.641433 z m -35.963307,-0.46302 c 0.341774,-0.363803 0.680939,-0.661459 0.753699,-0.661459 0.07276,0 -0.147342,0.297656 -0.489116,0.661459 -0.341774,0.363802 -0.680939,0.661458 -0.753699,0.661458 -0.07276,0 0.147341,-0.297656 0.489116,-0.661458 z m 33.982313,-1.521355 -0.777105,-0.859896 0.859895,0.777106 c 0.801544,0.724371 0.981512,0.942686 0.777106,0.942686 -0.04554,0 -0.432488,-0.386953 -0.859896,-0.859896 z M -73.025001,57.81146 c 0.263389,-0.291042 0.53842,-0.529167 0.611181,-0.529167 0.07276,0 -0.08321,0.238125 -0.346598,0.529167 -0.263389,0.291041 -0.53842,0.529166 -0.611181,0.529166 -0.07276,0 0.08321,-0.238125 0.346598,-0.529166 z m 1.040492,-0.764883 c 0.188769,-0.305434 1.208466,-0.921458 1.208466,-0.730064 0,0.06114 -0.312316,0.315808 -0.694035,0.56592 -0.381719,0.250112 -0.613213,0.323977 -0.514431,0.164144 z m 1.473049,-0.95297 c 0,-0.179237 2.149099,-1.248326 2.268793,-1.128632 0.05547,0.05547 -0.432322,0.359881 -1.083973,0.676477 -0.651651,0.316597 -1.18482,0.520066 -1.18482,0.452155 z m -8.313029,-0.804841 c -0.09942,-0.396123 -0.103857,-1.070381 -0.0099,-1.498352 0.157954,-0.719162 0.205673,-0.746664 0.62971,-0.362916 0.778601,0.704625 1.461285,0.474421 3.485316,-1.175262 4.76833,-3.886419 11.01527,-5.925359 19.15682,-6.252599 3.5328,-0.141997 7.60735,0.1137 9.557391,0.59977 0.815481,0.203268 0.992781,-0.84576 0.501197,-2.965427 -0.812721,-3.504385 -2.368789,-5.020265 -6.619004,-6.448059 l -2.38125,-0.799943 1.984375,0.146661 c 4.468219,0.330237 7.880526,1.477735 10.522279,3.538455 1.721474,1.34285 4.124831,5.514615 4.694771,8.14922 0.07083,0.327422 0.199542,0.863203 0.286026,1.190625 0.248373,0.940329 0.603439,2.928372 0.620735,3.475546 0.01401,0.443353 -0.122376,0.480049 -1.223339,0.329146 -1.074253,-0.147243 -1.408777,-0.360201 -2.51437,-1.600649 -1.325229,-1.486874 -2.755486,-2.204942 -6.300686,-3.163293 -2.697449,-0.729184 -7.837689,-1.334529 -8.074765,-0.950932 -0.0838,0.135591 -1.838245,0.230407 -3.909975,0.211308 -3.376729,-0.03113 -3.996577,0.03748 -6.109999,0.676292 -4.566399,1.380265 -8.844038,3.629066 -10.174167,5.348671 -0.326364,0.421927 -0.796638,1.02839 -1.045054,1.347695 -0.296283,0.380832 -0.872009,0.639676 -1.673526,0.752411 -1.167626,0.164228 -1.229885,0.139887 -1.402626,-0.548368 z m 23.592717,-7.985565 c -0.400183,-0.06062 -1.055026,-0.06062 -1.455209,0 -0.400182,0.06062 -0.07276,0.110223 0.727604,0.110223 0.800365,0 1.127787,-0.0496 0.727605,-0.110223 z m -11.840104,7.068675 c 0.218281,-0.141064 0.515937,-0.25648 0.661458,-0.25648 0.145521,0 0.08599,0.115416 -0.132292,0.25648 -0.218281,0.141065 -0.515937,0.256481 -0.661458,0.256481 -0.145521,0 -0.08599,-0.115416 0.132292,-0.256481 z m 21.10052,-0.439811 c 0.181901,-0.0734 0.479557,-0.0734 0.661458,0 0.181901,0.0734 0.03307,0.133452 -0.330729,0.133452 -0.363802,0 -0.51263,-0.06005 -0.330729,-0.133452 z m -18.851562,-0.353939 c 0.291042,-0.125064 0.70776,-0.22739 0.926042,-0.22739 0.250158,0 0.201252,0.08406 -0.132292,0.22739 -0.291042,0.125065 -0.70776,0.227391 -0.926042,0.227391 -0.250158,0 -0.201252,-0.08406 0.132292,-0.227391 z m 1.670182,-0.445323 c 0.190996,-0.07643 0.419199,-0.06703 0.507118,0.02089 0.08792,0.08792 -0.06835,0.150452 -0.347265,0.138964 -0.308225,-0.0127 -0.37092,-0.07539 -0.159853,-0.159852 z m 4.883291,-0.0026 c 0.257431,-0.06708 0.614618,-0.06267 0.79375,0.0098 0.179131,0.07248 -0.03149,0.127362 -0.468057,0.12197 -0.436562,-0.0054 -0.583124,-0.06469 -0.325693,-0.131774 z m 13.70804,-0.235569 c 0.0127,-0.308225 0.07539,-0.37092 0.159852,-0.159853 0.07643,0.190996 0.06703,0.419199 -0.02089,0.507118 -0.08792,0.08792 -0.150453,-0.06835 -0.138964,-0.347265 z m -17.549534,-0.02089 c 0.181901,-0.0734 0.479557,-0.0734 0.661458,0 0.181901,0.0734 0.03307,0.133452 -0.330729,0.133452 -0.363802,0 -0.51263,-0.06005 -0.330729,-0.133452 z m 12.435417,0 c 0.181901,-0.0734 0.479557,-0.0734 0.661458,0 0.181901,0.0734 0.03307,0.133452 -0.330729,0.133452 -0.363802,0 -0.512631,-0.06005 -0.330729,-0.133452 z m -10.71059,-0.272708 c 0.257431,-0.06708 0.614619,-0.06267 0.79375,0.0098 0.179132,0.07247 -0.03149,0.127361 -0.468056,0.121969 -0.436563,-0.0054 -0.583125,-0.06469 -0.325694,-0.131773 z m 8.461631,9.69e-4 c 0.254662,-0.06655 0.67138,-0.06655 0.926042,0 0.254661,0.06655 0.0463,0.121 -0.463021,0.121 -0.509323,0 -0.717682,-0.05445 -0.463021,-0.121 z m -4.894791,-0.273597 c 0.472942,-0.05869 1.246849,-0.05869 1.719791,0 0.472943,0.05869 0.08599,0.106712 -0.859896,0.106712 -0.945885,0 -1.332838,-0.04802 -0.859895,-0.106712 z m 11.063833,-1.859131 c -0.571803,-0.730842 -0.617615,-0.853578 -0.17393,-0.465973 0.530448,0.463402 1.230167,1.458182 1.025655,1.458161 -0.0415,-4e-6 -0.424776,-0.446489 -0.851725,-0.992188 z m -2.266438,-1.389054 c -0.218281,-0.141064 -0.277812,-0.256481 -0.132291,-0.256481 0.14552,0 0.443177,0.115417 0.661458,0.256481 0.218281,0.141064 0.277812,0.25648 0.132292,0.25648 -0.145521,0 -0.443177,-0.115416 -0.661459,-0.25648 z m -3.505729,-0.968979 c 0.181901,-0.0734 0.479557,-0.0734 0.661459,0 0.181901,0.0734 0.03307,0.133452 -0.33073,0.133452 -0.363802,0 -0.51263,-0.06005 -0.330729,-0.133452 z m -1.714756,-0.272708 c 0.257431,-0.06708 0.614619,-0.06267 0.79375,0.0098 0.179132,0.07248 -0.03149,0.127362 -0.468056,0.12197 -0.436563,-0.0054 -0.583125,-0.06469 -0.325694,-0.131773 z m -1.902376,-5.527237 c 0.01269,-0.308224 0.07539,-0.370919 0.159852,-0.159852 0.07643,0.190996 0.06703,0.419199 -0.02089,0.507118 -0.08792,0.08792 -0.150453,-0.06835 -0.138964,-0.347266 z"
         id="path7" /><path
         style="fill:#79886b"
         d="m -50.560047,80.199979 c -0.206633,-0.538479 0.08545,-0.964314 0.635556,-0.926577 0.388997,0.02669 0.385125,0.04684 -0.02966,0.154398 -0.380729,0.09872 -0.413714,0.200047 -0.163333,0.501737 0.254629,0.30681 0.390003,0.315107 0.718535,0.04404 0.334064,-0.275631 0.3821,-0.264643 0.274901,0.06288 -0.178322,0.544828 -1.243143,0.666081 -1.435994,0.163519 z m -18.148939,-1.93176 c 0.190996,-0.07643 0.4192,-0.06703 0.507118,0.02089 0.08792,0.08792 -0.06835,0.150452 -0.347265,0.138964 -0.308225,-0.0127 -0.370919,-0.07539 -0.159853,-0.159854 z m 3.031208,-0.531779 c 0.257431,-0.06708 0.614618,-0.06267 0.79375,0.0098 0.179131,0.07248 -0.03149,0.127362 -0.468057,0.12197 -0.436562,-0.0054 -0.583124,-0.06469 -0.325693,-0.131773 z m 7.138714,-0.01217 c 0.836745,-0.05251 2.205964,-0.05251 3.042708,0 0.836745,0.05251 0.152136,0.09547 -1.521354,0.09547 -1.673489,0 -2.358099,-0.04296 -1.521354,-0.09547 z m 5.957863,0.0038 c 0.475549,-0.05889 1.189924,-0.05767 1.5875,0.0027 0.397576,0.06037 0.0085,0.10855 -0.864634,0.107065 -0.873125,-0.0015 -1.198415,-0.05088 -0.722866,-0.109765 z m -6.073618,-3.428573 c 0.190996,-0.07643 0.419199,-0.06703 0.507118,0.02089 0.08792,0.08792 -0.06835,0.150452 -0.347266,0.138964 -0.308224,-0.0127 -0.370919,-0.07539 -0.159852,-0.159854 z m 4.451845,-1.274467 c 0.08376,-0.218282 0.273198,-0.396875 0.420968,-0.396875 0.154862,0 0.129147,0.168118 -0.0607,0.396875 -0.181157,0.218281 -0.370593,0.396875 -0.420968,0.396875 -0.05038,0 -0.02306,-0.178594 0.0607,-0.396875 z m -7.846846,-0.270641 c -0.279607,-0.336906 -0.263238,-0.375623 0.09989,-0.236275 0.238864,0.09166 0.434299,0.27298 0.434299,0.402931 0,0.340244 -0.153161,0.292461 -0.534194,-0.166656 z m 12.906549,-4.282114 c 0.329119,-0.06329 0.805369,-0.06088 1.058333,0.0053 0.252965,0.06622 -0.01631,0.118003 -0.598397,0.115066 -0.582083,-0.0029 -0.789055,-0.05712 -0.459936,-0.120406 z m 12.254782,-0.496377 c 0.0127,-0.308225 0.07539,-0.37092 0.159853,-0.159853 0.07643,0.190996 0.06703,0.419199 -0.02089,0.507118 -0.08792,0.08792 -0.150453,-0.06835 -0.138965,-0.347265 z m -15.524151,-0.970139 -0.504028,-0.595313 0.595312,0.504028 c 0.559447,0.473662 0.715762,0.686597 0.504028,0.686597 -0.05021,0 -0.318097,-0.26789 -0.595312,-0.595312 z m 0.652848,-0.396875 c -0.329108,-0.419644 -0.319749,-0.429003 0.09989,-0.0999 0.440729,0.345644 0.580887,0.562916 0.363126,0.562916 -0.05494,0 -0.263302,-0.20836 -0.463021,-0.463021 z m -28.17661,-2.711979 c 0,-1.67349 0.04296,-2.358099 0.09547,-1.521355 0.05251,0.836745 0.05251,2.205964 0,3.042709 -0.05251,0.836745 -0.09547,0.152135 -0.09547,-1.521354 z m 42.539635,2.38125 c 0,-0.363803 0.06005,-0.512631 0.133452,-0.33073 0.0734,0.181901 0.0734,0.479558 0,0.661459 -0.0734,0.181901 -0.133452,0.03307 -0.133452,-0.330729 z m 0.79375,-0.264584 c 0,-0.363802 0.06005,-0.51263 0.133452,-0.330729 0.0734,0.181901 0.0734,0.479557 0,0.661458 -0.0734,0.181901 -0.133452,0.03307 -0.133452,-0.330729 z M -81.27469,64.690627 c 0,-0.945886 0.04802,-1.332839 0.106712,-0.859896 0.05869,0.472942 0.05869,1.246849 0,1.719791 -0.05869,0.472943 -0.106712,0.08599 -0.106712,-0.859895 z m 14.009412,1.404146 c 0.257431,-0.06708 0.614618,-0.06267 0.79375,0.0098 0.179131,0.07247 -0.03149,0.127362 -0.468057,0.121969 -0.436562,-0.0054 -0.583124,-0.06469 -0.325693,-0.131773 z m 18.400042,0.0026 c 0.190996,-0.07643 0.419199,-0.06703 0.507118,0.02089 0.08792,0.08792 -0.06835,0.150453 -0.347266,0.138964 -0.308224,-0.0127 -0.370919,-0.07539 -0.159852,-0.159852 z m 15.486144,-2.068218 c 9.61e-4,-1.164166 0.04748,-1.607504 0.103369,-0.985194 0.05589,0.622311 0.05511,1.574811 -0.0017,2.116667 -0.05685,0.541857 -0.102583,0.03269 -0.101622,-1.131473 z m -31.443826,1.190625 c 0.263389,-0.291041 0.53842,-0.529166 0.611181,-0.529166 0.07276,0 -0.08321,0.238125 -0.346598,0.529166 -0.263389,0.291042 -0.53842,0.529167 -0.611181,0.529167 -0.07276,0 0.08321,-0.238125 0.346598,-0.529167 z m -6.440515,-1.852083 c 0,-0.363802 0.06005,-0.51263 0.133452,-0.330729 0.0734,0.181901 0.0734,0.479557 0,0.661458 -0.0734,0.181901 -0.133452,0.03307 -0.133452,-0.330729 z m 18.235361,0.110243 c 0.0127,-0.308225 0.07539,-0.370919 0.159853,-0.159852 0.07643,0.190996 0.06703,0.419199 -0.02089,0.507118 -0.08792,0.08792 -0.150452,-0.06835 -0.138964,-0.347266 z m 9.291109,-0.507118 c 0.0054,-0.436563 0.06469,-0.583125 0.131773,-0.325694 0.06708,0.257431 0.06267,0.614619 -0.0098,0.79375 -0.07248,0.179132 -0.127362,-0.03149 -0.12197,-0.468056 z m 6.624387,-0.661458 c 0,-0.509323 0.05445,-0.717683 0.121,-0.463021 0.06655,0.254661 0.06655,0.67138 0,0.926041 -0.06655,0.254662 -0.121,0.0463 -0.121,-0.46302 z m -26.7843,-1.073949 c 0,-0.154109 0.119062,-0.206613 0.264583,-0.116676 0.145521,0.08994 0.264583,0.216026 0.264583,0.280198 0,0.06417 -0.119062,0.116677 -0.264583,0.116677 -0.145521,0 -0.264583,-0.12609 -0.264583,-0.280199 z m -0.562916,-0.976572 c -0.329108,-0.419644 -0.319749,-0.429003 0.09989,-0.0999 0.254661,0.199719 0.463021,0.408079 0.463021,0.463021 0,0.217761 -0.217272,0.0776 -0.562916,-0.363126 z m 13.615693,-0.451382 c 0,-0.21188 0.101161,-0.322716 0.224802,-0.246302 0.123641,0.07642 0.156302,0.249771 0.07258,0.385237 -0.213949,0.346176 -0.297382,0.307196 -0.297382,-0.138935 z m 16.072277,-0.03369 c 0.0127,-0.308224 0.07539,-0.370919 0.159852,-0.159852 0.07643,0.190996 0.06703,0.419199 -0.02089,0.507118 -0.08792,0.08792 -0.150453,-0.06835 -0.138964,-0.347266 z m -32.983442,-0.674893 c -0.07788,-0.126005 0.222622,-0.2291 0.667773,-0.2291 0.44515,0 0.809365,0.04565 0.809365,0.101447 0,0.224524 -1.345411,0.340793 -1.477138,0.127653 z m 18.145887,-0.0012 c 0,-0.125341 0.297657,-0.227893 0.661459,-0.227893 0.363802,0 0.661458,0.04565 0.661458,0.101447 0,0.0558 -0.297656,0.158348 -0.661458,0.227894 -0.363802,0.06954 -0.661459,0.02389 -0.661459,-0.101448 z m 13.270943,-0.227893 c 0,-0.363802 0.06005,-0.51263 0.133452,-0.330729 0.0734,0.181901 0.0734,0.479557 0,0.661458 -0.0734,0.181901 -0.133452,0.03307 -0.133452,-0.330729 z m -12.670595,-1.770854 c 0.257431,-0.06708 0.614619,-0.06267 0.79375,0.0098 0.179132,0.07248 -0.03149,0.127362 -0.468056,0.12197 -0.436562,-0.0054 -0.583125,-0.06469 -0.325694,-0.131774 z m 11.876845,-0.610396 c 0,-0.363802 0.06005,-0.51263 0.133452,-0.330729 0.0734,0.181901 0.0734,0.479557 0,0.661458 -0.0734,0.181901 -0.133452,0.03307 -0.133452,-0.330729 z M -59.082169,44.101896 c -1.624888,-1.517873 -0.768201,-3.685043 1.5026,-3.80114 0.935429,-0.04783 1.253831,0.05923 1.657002,0.557125 0.645757,0.797476 0.939313,1.94383 0.532497,2.079435 -0.169411,0.05647 -0.251417,0.19426 -0.182235,0.306199 0.209522,0.339013 -1.021414,1.320126 -1.868937,1.48963 -0.642226,0.128445 -0.957508,0.0072 -1.640927,-0.631249 z m 2.497362,-1.502458 c 0.08344,-0.217446 0.241893,-0.339621 0.352115,-0.2715 0.110221,0.06812 0.187042,-0.125001 0.170713,-0.429159 -0.0236,-0.439536 -0.232108,-0.571146 -1.016142,-0.641378 -1.345504,-0.120526 -1.909323,0.488444 -1.547332,1.671246 0.01113,0.03638 0.440699,0.06615 0.954589,0.06615 0.584857,0 0.991093,-0.147881 1.086057,-0.395355 z"
         id="path6" /><path
         style="fill:#9b7d4b"
         d="m -63.963022,80.943458 c -0.989129,-0.536611 -0.928921,-0.760109 0.06615,-0.24554 0.436562,0.225756 0.79375,0.466938 0.79375,0.535962 0,0.170258 -0.02843,0.160657 -0.859896,-0.290422 z m 14.45188,-0.329478 c 0.588689,-0.663241 0.401355,-1.37127 -0.362818,-1.37127 -0.673157,0 -0.966,0.664273 -0.52637,1.193994 0.204209,0.246057 0.221981,0.393506 0.04743,0.393506 -0.446991,0 -0.654091,-1.046399 -0.293171,-1.481282 0.181468,-0.218655 0.637789,-0.36177 1.014047,-0.318032 0.955209,0.111036 1.117508,1.357701 0.236942,1.820018 -0.60586,0.31809 -0.606868,0.316032 -0.11606,-0.236934 z m -17.182587,-1.238978 c -0.788481,-0.56059 -1.120105,-0.926042 -0.840322,-0.926042 0.254196,0 0.462175,0.09714 0.462175,0.215863 0,0.118724 0.47625,0.48353 1.058333,0.810679 0.582083,0.327149 1.058333,0.64673 1.058333,0.710179 0,0.293393 -0.539377,0.04188 -1.738519,-0.810679 z m 2.072886,-0.586735 c 0.402184,-0.06082 0.997496,-0.05919 1.322917,0.0036 0.325421,0.0628 -0.0036,0.11256 -0.731242,0.110574 -0.727604,-0.002 -0.993858,-0.05337 -0.591675,-0.114185 z m 15.606779,-0.257108 c 0.254661,-0.06655 0.67138,-0.06655 0.926041,0 0.254662,0.06655 0.0463,0.121 -0.46302,0.121 -0.509323,0 -0.717683,-0.05445 -0.463021,-0.121 z M -77.112165,62.730294 c -0.0076,-0.132298 0.467356,-0.87793 1.05553,-1.656961 2.485689,-3.292272 7.410736,-6.289124 12.556634,-7.640613 4.726301,-1.241288 12.324656,-1.169748 16.153683,0.15209 1.737925,0.599959 2.644945,0.520734 2.890347,-0.25246 0.182928,-0.576353 -0.448015,-2.261237 -1.128601,-3.01384 -1.098651,-1.21491 -4.105218,-2.138641 -8.787305,-2.699795 l -3.042708,-0.364672 3.042708,0.128251 c 3.843055,0.161985 7.059061,0.709425 9.955968,1.694737 2.659513,0.90457 3.208775,1.231413 4.326736,2.574666 1.029046,1.236419 3.086991,5.735612 3.569449,7.803728 0.335285,1.437237 0.326255,1.554077 -0.139369,1.803271 -0.420524,0.225058 -0.865286,-0.08173 -2.862481,-1.974465 -2.707364,-2.565764 -4.645656,-3.8865 -7.009606,-4.776289 -7.617023,-2.867039 -18.995306,-1.360796 -25.657811,3.396551 -1.594818,1.138776 -3.567225,3.086399 -4.460938,4.404884 -0.246597,0.363802 -0.454603,0.553214 -0.462236,0.420917 z m 21.32159,-18.809459 c 0.611732,-1.044689 0.624948,-1.060231 0.624948,-0.734867 0,0.153652 -0.245191,0.560449 -0.544869,0.903993 l -0.54487,0.624624 z m -3.40816,-3.50573 c 0.436248,-0.416838 0.916067,-0.585384 1.600467,-0.562195 l 0.977433,0.03312 -1.114958,0.181843 c -0.613227,0.100014 -1.333438,0.353002 -1.600467,0.562196 -0.26703,0.209193 -0.205144,0.112461 0.137525,-0.214961 z m 3.081928,0.132292 -0.504028,-0.595312 0.595313,0.504028 c 0.559446,0.473662 0.715761,0.686597 0.504028,0.686597 -0.05021,0 -0.318098,-0.267891 -0.595313,-0.595313 z"
         id="path5" /><path
         style="fill:#5b6150"
         d="m -50.109015,79.939748 c -0.241201,-0.290629 -0.193097,-0.397153 0.229215,-0.50759 0.658953,-0.17232 0.92029,0.174753 0.434906,0.577586 -0.270013,0.224091 -0.434432,0.206762 -0.664121,-0.07 z m -8.303659,-0.35883 c 0.469697,-0.05845 1.303135,-0.05941 1.852084,-0.0021 0.548948,0.05728 0.164651,0.105099 -0.853995,0.106272 -1.018646,0.0012 -1.467786,-0.04569 -0.998089,-0.104138 z m -7.534723,-1.061854 c 0.691224,-0.0545 1.822317,-0.0545 2.513541,0 0.691224,0.0545 0.125677,0.0991 -1.25677,0.0991 -1.382448,0 -1.947995,-0.04459 -1.256771,-0.0991 z m 14.155208,0.0031 c 0.472943,-0.05869 1.246849,-0.05869 1.719792,0 0.472942,0.05869 0.08599,0.106712 -0.859896,0.106712 -0.945886,0 -1.332839,-0.04802 -0.859896,-0.106712 z m 3.571875,-0.255569 c 0.254661,-0.06655 0.67138,-0.06655 0.926041,0 0.254662,0.06655 0.0463,0.121 -0.46302,0.121 -0.509323,0 -0.717683,-0.05445 -0.463021,-0.121 z m 1.984375,-0.257428 c 0.181901,-0.0734 0.479557,-0.0734 0.661458,0 0.181901,0.0734 0.03307,0.133452 -0.330729,0.133452 -0.363802,0 -0.51263,-0.06005 -0.330729,-0.133452 z m -20.6375,-0.264583 c 0.181901,-0.0734 0.479557,-0.0734 0.661458,0 0.181902,0.0734 0.03307,0.133452 -0.330729,0.133452 -0.363802,0 -0.51263,-0.06005 -0.330729,-0.133452 z m 16.806077,-0.0081 c 0.257431,-0.06708 0.614619,-0.06267 0.79375,0.0098 0.179132,0.07248 -0.03149,0.127362 -0.468056,0.12197 -0.436563,-0.0054 -0.583125,-0.06469 -0.325694,-0.131773 z m 8.081293,-1.055721 c 0.190996,-0.07643 0.419199,-0.06703 0.507118,0.02089 0.08792,0.08792 -0.06835,0.150452 -0.347266,0.138964 -0.308225,-0.0127 -0.370919,-0.07539 -0.159852,-0.159854 z m -33.436827,-1.472905 -0.777105,-0.859896 0.859896,0.777106 c 0.801543,0.724371 0.981512,0.942686 0.777105,0.942686 -0.04554,0 -0.432488,-0.386953 -0.859896,-0.859896 z m 34.544769,0.760001 c 0,-0.05494 0.20836,-0.263301 0.463021,-0.463021 0.419644,-0.329107 0.429002,-0.319749 0.0999,0.09989 -0.345644,0.440729 -0.562916,0.580887 -0.562916,0.363126 z m 1.058334,-1.058333 c 0,-0.05494 0.208359,-0.263302 0.46302,-0.463021 0.419644,-0.329107 0.429003,-0.319749 0.09989,0.0999 -0.345643,0.440729 -0.562915,0.580887 -0.562915,0.363126 z m -18.057813,-0.6045 c 0.181901,-0.0734 0.479558,-0.0734 0.661459,0 0.181901,0.0734 0.03307,0.133452 -0.33073,0.133452 -0.363802,0 -0.51263,-0.06005 -0.330729,-0.133452 z m 1.653646,-0.369554 c 0,-0.154109 0.119063,-0.206613 0.264583,-0.116676 0.145521,0.08994 0.264584,0.216026 0.264584,0.280198 0,0.06417 -0.119063,0.116677 -0.264584,0.116677 -0.14552,0 -0.264583,-0.12609 -0.264583,-0.280199 z m -4.910368,-0.660439 c -0.493189,-0.395127 -0.489943,-0.400012 0.08172,-0.122983 0.327422,0.158669 0.595313,0.343831 0.595313,0.411471 0,0.202465 -0.137215,0.143997 -0.677035,-0.288488 z m 6.233285,0.175195 c 0,-0.129952 0.195434,-0.311271 0.434298,-0.402932 0.363134,-0.139347 0.379503,-0.10063 0.0999,0.236276 -0.381033,0.459117 -0.534193,0.5069 -0.534193,0.166656 z M -78.163488,69.29883 c 0.0127,-0.308224 0.07539,-0.370919 0.159852,-0.159852 0.07643,0.190996 0.06703,0.419199 -0.02089,0.507118 -0.08792,0.08792 -0.150452,-0.06835 -0.138964,-0.347266 z m 10.89821,-0.822763 c 0.257431,-0.06708 0.614618,-0.06267 0.79375,0.0098 0.179131,0.07247 -0.03149,0.127362 -0.468057,0.121969 -0.436562,-0.0054 -0.583124,-0.06469 -0.325693,-0.131773 z m -0.137328,-0.521042 c 0.181902,-0.0734 0.479558,-0.0734 0.661459,0 0.181901,0.0734 0.03307,0.133453 -0.330729,0.133453 -0.363802,0 -0.512631,-0.06005 -0.33073,-0.133453 z m -3.266284,-0.94925 -0.504028,-0.595313 0.595313,0.504028 c 0.559446,0.473662 0.715761,0.686597 0.504027,0.686597 -0.05021,0 -0.318097,-0.26789 -0.595312,-0.595312 z m -7.199323,-0.330729 c 0.0054,-0.436563 0.06469,-0.583125 0.131774,-0.325694 0.06708,0.257431 0.06267,0.614618 -0.0098,0.79375 -0.07247,0.179131 -0.127362,-0.03149 -0.12197,-0.468056 z m 43.142226,-0.79375 c 0.0029,-0.582084 0.05712,-0.789055 0.120406,-0.459936 0.06329,0.329118 0.06088,0.805368 -0.0053,1.058333 -0.06622,0.252965 -0.118003,-0.01631 -0.115067,-0.598397 z m -16.099153,-0.727605 -0.504028,-0.595312 0.595312,0.504028 c 0.559447,0.473662 0.715762,0.686597 0.504028,0.686597 -0.05021,0 -0.318097,-0.267891 -0.595312,-0.595313 z m -27.799448,-1.521354 c 0,-1.091406 0.0467,-1.53789 0.103786,-0.992187 0.05708,0.545703 0.05708,1.438672 0,1.984375 -0.05708,0.545703 -0.103786,0.09922 -0.103786,-0.992188 z m 42.021571,1.322917 c 0,-0.363802 0.06005,-0.51263 0.133452,-0.330729 0.0734,0.181901 0.0734,0.479557 0,0.661458 -0.0734,0.181901 -0.133452,0.03307 -0.133452,-0.330729 z m -0.509559,-1.058333 c 0,-0.509323 0.05445,-0.717683 0.121,-0.463021 0.06655,0.254661 0.06655,0.67138 0,0.926041 -0.06655,0.254662 -0.121,0.0463 -0.121,-0.46302 z m -25.93897,-0.396875 c 0.0054,-0.436563 0.06469,-0.583125 0.131773,-0.325694 0.06708,0.257431 0.06267,0.614618 -0.0098,0.79375 -0.07248,0.179131 -0.127362,-0.03149 -0.12197,-0.468056 z m 18.256249,0 c 0.0054,-0.436563 0.06469,-0.583125 0.131774,-0.325694 0.06708,0.257431 0.06267,0.614618 -0.0098,0.79375 -0.07247,0.179131 -0.127362,-0.03149 -0.12197,-0.468056 z m -25.430691,-0.815799 c 0.0127,-0.308225 0.07539,-0.370919 0.159852,-0.159853 0.07643,0.190997 0.06703,0.4192 -0.02089,0.507119 -0.08792,0.08792 -0.150453,-0.06835 -0.138964,-0.347266 z m -7.856429,-3.02066 c 0,-1.81901 0.04227,-2.563151 0.09394,-1.653646 0.05166,0.909506 0.05166,2.397787 0,3.307292 -0.05167,0.909505 -0.09394,0.165365 -0.09394,-1.653646 z m 43.36177,1.5875 c 0,-0.654844 0.0516,-0.922734 0.114662,-0.595312 0.06306,0.327422 0.06306,0.863203 0,1.190625 -0.06306,0.327422 -0.114662,0.05953 -0.114662,-0.595313 z m -11.598083,-1.124479 -0.777105,-0.859896 0.859896,0.777106 c 0.801543,0.724371 0.981512,0.942686 0.777105,0.942686 -0.04553,0 -0.432488,-0.386953 -0.859896,-0.859896 z m -23.928146,0.230834 c 0,-0.05494 0.208359,-0.263301 0.463021,-0.46302 0.419643,-0.329108 0.429002,-0.31975 0.09989,0.09989 -0.345643,0.44073 -0.562915,0.580887 -0.562915,0.363126 z m 18.256249,0 c 0,-0.05494 0.20836,-0.263301 0.463021,-0.46302 0.419644,-0.329108 0.429002,-0.31975 0.09989,0.09989 -0.345644,0.44073 -0.562916,0.580887 -0.562916,0.363126 z m -13.377034,-0.840743 c -0.49319,-0.395126 -0.489943,-0.400011 0.08172,-0.122982 0.327422,0.158668 0.595313,0.34383 0.595313,0.411471 0,0.202464 -0.137215,0.143996 -0.677035,-0.288489 z m 31.070368,-0.05155 c -0.329107,-0.419644 -0.319749,-0.429003 0.0999,-0.09989 0.440729,0.345644 0.580887,0.562916 0.363126,0.562916 -0.05494,0 -0.263301,-0.20836 -0.463021,-0.463021 z M -67.33646,59.297513 c 0,-0.0558 0.297657,-0.158348 0.661459,-0.227894 0.363802,-0.06955 0.661458,-0.02389 0.661458,0.101448 0,0.125341 -0.297656,0.227893 -0.661458,0.227893 -0.363802,0 -0.661459,-0.04565 -0.661459,-0.101447 z m 18.630542,-0.174647 c 0.454762,-0.135992 0.943267,-0.129962 1.190625,0.0147 0.300031,0.175463 0.08047,0.241121 -0.771167,0.23061 -1.099191,-0.01357 -1.131403,-0.03241 -0.419458,-0.245307 z m 12.082013,-0.14283 c 0.0127,-0.308224 0.07539,-0.370919 0.159852,-0.159852 0.07643,0.190996 0.06703,0.419199 -0.02089,0.507118 -0.08792,0.08792 -0.150453,-0.06835 -0.138964,-0.347266 z M -78.60774,57.567673 c 0.01911,-1.034903 0.137025,-1.464236 0.423364,-1.541497 0.275769,-0.07441 0.301137,-0.03883 0.08313,0.11661 -0.172557,0.123032 -0.363071,0.816706 -0.423364,1.541497 l -0.109624,1.317802 z m 41.454668,-2.02722 c 0.0127,-0.308225 0.07539,-0.370919 0.159852,-0.159853 0.07643,0.190997 0.06703,0.4192 -0.02089,0.507118 -0.08792,0.08792 -0.150453,-0.06835 -0.138964,-0.347265 z m 0.559859,-0.507118 c 0.0054,-0.436563 0.06469,-0.583125 0.131773,-0.325694 0.06708,0.257431 0.06267,0.614619 -0.0098,0.79375 -0.07248,0.179132 -0.127361,-0.03149 -0.121969,-0.468056 z m -0.845331,-1.499306 c 0,-0.121267 0.178594,-0.220486 0.396875,-0.220486 0.218282,0 0.396875,0.09922 0.396875,0.220486 0,0.121268 -0.178593,0.220486 -0.396875,0.220486 -0.218281,0 -0.396875,-0.09922 -0.396875,-0.220486 z m -21.732667,-9.232022 -0.624624,-0.54487 0.727604,0.443008 c 0.400183,0.243654 0.727604,0.488845 0.727604,0.544869 0,0.206598 -0.221056,0.08869 -0.830584,-0.443007 z m 2.682668,0.180391 c 0,-0.05494 0.208359,-0.263301 0.463021,-0.463021 0.419643,-0.329107 0.429002,-0.319749 0.09989,0.0999 -0.345643,0.440729 -0.562915,0.580887 -0.562915,0.363126 z m -3.66239,-2.016772 c 0,-0.363802 0.06005,-0.51263 0.133452,-0.330729 0.0734,0.181901 0.0734,0.479557 0,0.661459 -0.0734,0.181901 -0.133452,0.03307 -0.133452,-0.33073 z m 1.52548,0.447998 c -0.01113,-0.02812 -0.05868,-0.249583 -0.105652,-0.492147 -0.10602,-0.547454 0.988586,-0.872923 1.684036,-0.50073 0.478993,0.256349 0.823109,0.13734 0.823109,-0.284664 0,-0.1167 -0.208359,-0.145156 -0.463021,-0.06324 -0.387011,0.124496 -0.398232,0.103224 -0.06836,-0.129578 0.617918,-0.436082 0.911881,0.105948 0.430326,0.793465 -0.2869,0.409606 -0.730736,0.628889 -1.353537,0.668732 -0.509663,0.0326 -0.93577,0.03628 -0.946904,0.0082 z m 1.872326,-0.447998 c 0,-0.14552 -0.386953,-0.252715 -0.859895,-0.238209 -0.814723,0.02499 -0.825148,0.0375 -0.198438,0.238209 0.933662,0.299011 1.058333,0.299011 1.058333,0 z m -3.174999,-0.973229 c 0,-0.14722 0.26789,-0.494486 0.595312,-0.771701 l 0.595313,-0.504028 -0.526348,0.661458 c -0.28949,0.363802 -0.557381,0.711068 -0.595312,0.771702 -0.03793,0.06063 -0.06896,-0.01021 -0.06896,-0.157431 z m 1.587499,-0.0851 c 0.218282,-0.141064 0.575469,-0.249935 0.79375,-0.241936 0.261688,0.0096 0.216626,0.092 -0.132291,0.241936 -0.727362,0.312558 -1.145108,0.312558 -0.661459,0 z m 0.06615,-1.240717 c 0.254662,-0.06655 0.671381,-0.06655 0.926042,0 0.254661,0.06655 0.0463,0.121 -0.463021,0.121 -0.509323,0 -0.717682,-0.05445 -0.463021,-0.121 z"
         id="path4" /><path
         style="fill:#3e4642"
         d="m -60.19271,79.347344 c -0.218281,-0.08061 -0.575469,-0.215559 -0.79375,-0.299893 -0.218281,-0.08433 -0.486172,-0.134432 -0.595312,-0.111329 -0.109141,0.0231 -0.198438,-0.07706 -0.198438,-0.222579 0,-0.14552 -0.0893,-0.234817 -0.198437,-0.198437 -0.109141,0.03638 -0.22816,-0.04637 -0.264488,-0.183891 -0.0387,-0.146502 1.385566,-0.26415 3.439583,-0.28412 4.228772,-0.04111 6.283759,0.116645 6.283759,0.48239 0,0.149739 -0.07979,0.19246 -0.177317,0.09494 -0.09752,-0.09752 -0.484478,0.02785 -0.859896,0.278611 -0.517106,0.3454 -1.356062,0.472284 -3.460704,0.523399 -1.527969,0.03711 -2.956719,0.0015 -3.175,-0.07909 z m -9.147175,-1.304334 c -3.832672,-0.841698 -6.396353,-2.654137 -7.615362,-5.383813 -0.844869,-1.89188 -1.567231,-5.742073 -1.411115,-7.521257 0.06628,-0.755345 0.0095,-1.968668 -0.126156,-2.696272 -0.249424,-1.337731 -0.0347,-6.218898 0.27346,-6.216301 0.134815,0.0011 0.375224,8.267013 0.344322,11.838697 -0.0041,0.472943 0.105428,0.859896 0.243376,0.859896 0.137949,0 0.176109,0.297656 0.0848,0.661458 -0.108876,0.433797 -0.05534,0.661459 0.155558,0.661459 0.176866,0 0.254504,0.17478 0.17253,0.388401 -0.08197,0.213621 -0.03324,0.459973 0.1083,0.547449 0.141539,0.08748 0.188844,0.269883 0.105122,0.405349 -0.08372,0.135465 -0.05005,0.246301 0.07482,0.246301 0.124875,0 0.370683,0.39722 0.546239,0.882712 0.295381,0.81686 3.221655,3.930842 3.230746,3.437983 0.0022,-0.12081 0.103444,-0.06291 0.224924,0.128666 0.121479,0.191576 0.387547,0.37988 0.591261,0.418453 0.203713,0.03857 0.846638,0.20523 1.428721,0.370349 1.621594,0.459995 6.400307,1.12669 6.847054,0.955256 0.218266,-0.08376 0.612438,-0.02688 0.875938,0.126394 0.714739,0.41575 -4.155806,0.327765 -6.154542,-0.11118 z m 17.349258,0.224513 c 0,-0.14354 0.491749,-0.28025 1.092774,-0.303801 1.576359,-0.06177 6.07821,-0.760536 6.891217,-1.06964 0.381067,-0.144882 0.764622,-0.191648 0.852346,-0.103924 0.08772,0.08772 0.159497,0.01356 0.159497,-0.164799 0,-0.178363 0.119062,-0.250711 0.264583,-0.160774 0.145521,0.08994 0.267786,0.0672 0.2717,-0.05053 0.0039,-0.117729 0.480865,-0.506321 1.059892,-0.863539 0.579027,-0.357217 1.365923,-1.101358 1.748659,-1.653646 0.382735,-0.552287 0.818596,-1.004159 0.96858,-1.004159 0.149983,0 0.203256,-0.06944 0.118383,-0.154313 -0.08487,-0.08487 0.1228,-0.91831 0.461493,-1.852084 0.338694,-0.933773 0.552306,-1.69777 0.474695,-1.69777 -0.07761,0 0.0095,-0.181471 0.193571,-0.403269 0.539342,-0.649867 0.544858,-0.329932 0.02562,1.485765 -0.795648,2.782234 -1.580693,4.04353 -3.566123,5.729529 -0.384926,0.326874 -0.760255,0.592352 -0.834063,0.589951 -0.07381,-0.0024 -0.484234,0.176647 -0.912057,0.397883 -0.427823,0.221235 -1.527903,0.579764 -2.444624,0.796731 -2.138602,0.506158 -6.826139,0.837417 -6.826139,0.48239 z m -7.540624,-4.31648 c -0.348917,-0.149934 -0.39398,-0.232345 -0.132292,-0.241935 0.218281,-0.008 0.575469,0.100871 0.79375,0.241935 0.483649,0.312559 0.0659,0.312559 -0.661458,0 z m 1.653645,0.07786 c 0.327422,-0.06306 0.863203,-0.06306 1.190625,0 0.327422,0.06306 0.05953,0.114663 -0.595312,0.114663 -0.654844,0 -0.922735,-0.0516 -0.595313,-0.114663 z m 8.73125,-6.07392 c 0.181901,-0.0734 0.479557,-0.0734 0.661458,0 0.181902,0.0734 0.03307,0.133453 -0.330729,0.133453 -0.363802,0 -0.51263,-0.06005 -0.330729,-0.133453 z m 3.638021,-0.883104 c 0.263389,-0.291042 0.53842,-0.529167 0.611181,-0.529167 0.07276,0 -0.08321,0.238125 -0.346598,0.529167 -0.263389,0.291041 -0.53842,0.529166 -0.611181,0.529166 -0.07276,0 0.08321,-0.238125 0.346598,-0.529166 z m 8.619846,-0.154341 c 0.0127,-0.308224 0.07539,-0.370919 0.159853,-0.159852 0.07643,0.190996 0.06703,0.419199 -0.02089,0.507118 -0.08792,0.08792 -0.150453,-0.06835 -0.138965,-0.347266 z m -43.888804,-0.427743 c -0.205655,-0.205655 -0.3175,-1.273113 -0.3175,-3.030259 0,-2.587317 0.345031,-4.205606 0.83244,-3.904371 0.286077,0.176805 0.299957,7.25213 0.01423,7.25213 -0.116417,0 -0.354542,-0.142875 -0.529167,-0.3175 z m 46.288282,-0.430383 c -0.10204,-1.010093 -0.11152,-3.641936 -0.01911,-5.305234 0.07884,-1.4191 0.08034,-1.421323 0.55869,-0.830584 0.397284,0.490625 0.479635,1.085401 0.479635,3.46412 0,2.489328 -0.06311,2.905573 -0.473881,3.12541 -0.395483,0.211656 -0.485702,0.136595 -0.545336,-0.453712 z M -48.28646,65.733345 c 0,-0.154109 0.119062,-0.206614 0.264583,-0.116677 0.145521,0.08994 0.264584,0.216026 0.264584,0.280198 0,0.06417 -0.119063,0.116677 -0.264584,0.116677 -0.145521,0 -0.264583,-0.126089 -0.264583,-0.280198 z m 11.16408,-0.38126 c 0.0054,-0.436563 0.06469,-0.583125 0.131774,-0.325694 0.06708,0.257431 0.06267,0.614619 -0.0098,0.79375 -0.07248,0.179132 -0.127362,-0.03149 -0.12197,-0.468056 z m -32.099912,-0.330729 c -0.329107,-0.419644 -0.319749,-0.429003 0.09989,-0.0999 0.440729,0.345644 0.580887,0.562916 0.363126,0.562916 -0.05494,0 -0.263302,-0.20836 -0.463021,-0.463021 z m 22.258749,0.363126 c 0,-0.05494 0.208359,-0.263302 0.46302,-0.463021 0.419644,-0.329108 0.429003,-0.319749 0.0999,0.0999 -0.345643,0.440729 -0.562915,0.580887 -0.562915,0.363126 z m 10.398036,-2.281355 c 0,-0.800365 0.0496,-1.127787 0.110222,-0.727605 0.06062,0.400183 0.06062,1.055026 0,1.455209 -0.06062,0.400182 -0.110222,0.07276 -0.110222,-0.727604 z m -17.215819,-0.264584 c 0,-0.509323 0.05445,-0.717682 0.121,-0.463021 0.06655,0.254662 0.06655,0.671381 0,0.926042 -0.06655,0.254662 -0.121,0.0463 -0.121,-0.463021 z m -10.678466,-2.844271 c -0.329108,-0.419644 -0.319749,-0.429002 0.09989,-0.09989 0.254661,0.199719 0.463021,0.408078 0.463021,0.46302 0,0.217761 -0.217272,0.0776 -0.562916,-0.363126 z m 18.25625,0 c -0.329108,-0.419644 -0.319749,-0.429002 0.09989,-0.09989 0.44073,0.345643 0.580888,0.562915 0.363126,0.562915 -0.05494,0 -0.263301,-0.208359 -0.46302,-0.463021 z m 9.312761,-2.778125 c 0.01023,-0.327422 0.120923,-0.833437 0.245987,-1.124479 0.17611,-0.409829 0.231585,-0.275575 0.245987,0.595313 0.01023,0.618463 -0.100466,1.124479 -0.245987,1.124479 -0.14552,0 -0.256215,-0.267891 -0.245987,-0.595313 z m -0.138249,-2.116666 c -0.11085,-0.254662 -0.11085,-0.671381 0,-0.926042 0.191949,-0.440972 0.20682,-0.440972 0.312292,0 0.06091,0.254661 0.06091,0.67138 0,0.926042 -0.105472,0.440972 -0.120343,0.440972 -0.312292,0 z M -57.789411,42.925828 c 0.06063,-0.03793 0.378133,-0.29451 0.705555,-0.570174 0.327422,-0.275665 0.595313,-0.431729 0.595313,-0.346809 0,0.266656 -0.818059,0.985948 -1.12133,0.985948 -0.15938,0 -0.240172,-0.03103 -0.179538,-0.06896 z m -0.815799,-1.093353 c 0,-0.05719 0.184778,-0.17489 0.410617,-0.261552 0.235459,-0.09035 0.341662,-0.046 0.248968,0.103984 -0.155378,0.251408 -0.659585,0.371858 -0.659585,0.157568 z"
         id="path3" /><path
         style="fill:#374338"
         d="m -63.103126,78.184377 c -0.319292,-0.206342 -0.277448,-0.257273 0.214052,-0.260532 0.340669,-0.0023 0.53859,0.112993 0.447406,0.260532 -0.196635,0.318161 -0.169139,0.318161 -0.661458,0 z m 9.657291,0 -1.058333,-0.189492 1.256771,-0.03755 c 0.691224,-0.02065 1.25677,0.08152 1.25677,0.227038 0,0.145521 -0.0893,0.247687 -0.198437,0.227037 -0.109141,-0.02065 -0.674688,-0.122817 -1.256771,-0.227037 z m -11.575521,-0.175229 c 0.181901,-0.0734 0.479558,-0.0734 0.661459,0 0.181901,0.0734 0.03307,0.133452 -0.330729,0.133452 -0.363802,0 -0.512631,-0.06005 -0.33073,-0.133452 z m 5.167359,-0.01958 c 0.695614,-0.05468 1.767177,-0.05402 2.38125,0.0015 0.614072,0.05549 0.04493,0.10023 -1.264754,0.09942 -1.309688,-8.06e-4 -1.812111,-0.04621 -1.116496,-0.10089 z M -77.634321,69.82795 c 0.01269,-0.308225 0.07539,-0.370919 0.159852,-0.159852 0.07643,0.190996 0.06703,0.419199 -0.02089,0.507118 -0.08792,0.08792 -0.150453,-0.06835 -0.138964,-0.347266 z m -0.264584,-1.322917 c 0.0127,-0.308224 0.07539,-0.370919 0.159853,-0.159852 0.07643,0.190996 0.06703,0.419199 -0.02089,0.507118 -0.08792,0.08792 -0.150453,-0.06835 -0.138965,-0.347266 z m 40.565946,-0.374826 c 0.09767,-0.363802 0.25062,-2.000912 0.339897,-3.638021 0.08928,-1.637109 0.234578,-2.976562 0.322891,-2.976562 0.300403,0 -0.204231,6.68616 -0.527239,6.985684 -0.23761,0.220334 -0.270299,0.130838 -0.135549,-0.371101 z M -69.16973,67.931361 c -1.925713,-0.981949 -3.323317,-4.021841 -2.656005,-5.777005 0.14285,-0.375724 0.192318,-0.792206 0.109928,-0.925516 -0.08239,-0.133309 -0.01097,-0.24238 0.158707,-0.24238 0.170113,0 0.237822,-0.184198 0.150937,-0.410617 -0.08666,-0.225839 -0.05718,-0.348571 0.06552,-0.272738 0.122701,0.07583 0.508291,-0.171452 0.856865,-0.549524 0.850316,-0.922271 2.081834,-1.412955 3.546232,-1.412955 1.233791,0 2.930192,0.684489 3.551366,1.432958 0.188654,0.227315 0.447216,0.348895 0.574581,0.270179 0.127366,-0.07872 0.153173,0.06119 0.05735,0.3109 -0.127561,0.332418 -0.08037,0.396014 0.176203,0.237445 0.237732,-0.146926 0.28741,-0.114613 0.154476,0.100478 -0.107772,0.17438 -0.04969,0.49329 0.129079,0.708689 0.5582,0.672591 0.123448,3.722747 -0.699982,4.910955 -1.302227,1.879116 -4.18374,2.634638 -6.175261,1.619131 z m 3.507768,-0.16205 c 1.792333,-0.748884 3.023645,-3.032435 2.709018,-5.024054 -0.18614,-1.178286 -1.28707,-3.081714 -1.782444,-3.081714 -0.166151,0 -0.07526,0.267613 0.202192,0.595313 l 0.504028,0.595312 -0.589073,-0.498381 c -0.323991,-0.27411 -0.529015,-0.595558 -0.455611,-0.71433 0.22853,-0.369769 -0.851535,-0.771664 -2.073794,-0.771664 -1.523722,0 -2.783335,0.838695 -3.579545,2.383386 -1.20642,2.340521 -0.299343,5.326149 1.935523,6.370738 1.268654,0.592976 1.97946,0.625998 3.129706,0.145394 z m -2.357536,-2.01211 c -0.795458,-0.321797 -1.964535,-1.804332 -1.952439,-2.475937 0.0085,-0.474185 0.07339,-0.430184 0.369829,0.250937 0.50722,1.165422 1.379159,1.687592 2.818005,1.687592 0.862776,0 1.447321,-0.172232 1.964055,-0.578695 l 0.735691,-0.578694 -0.439136,0.670207 c -0.737151,1.125033 -2.193007,1.551708 -3.496005,1.02459 z m 4.174202,-3.315533 c 0.0054,-0.436562 0.06469,-0.583124 0.131773,-0.325693 0.06708,0.257431 0.06267,0.614618 -0.0098,0.79375 -0.07248,0.179131 -0.127362,-0.03149 -0.12197,-0.468057 z m 13.185458,5.534164 c -2.099291,-0.91055 -2.98562,-2.500046 -2.877043,-5.159541 0.04109,-1.006407 0.180417,-1.829831 0.30962,-1.829831 0.129204,0 0.166931,-0.177166 0.08384,-0.393701 -0.08309,-0.216536 -0.06377,-0.365364 0.04295,-0.330729 0.106714,0.03463 0.489382,-0.218916 0.850374,-0.563444 2.012512,-1.920732 5.696837,-1.747392 7.343089,0.345478 0.285478,0.362927 0.600682,0.578237 0.700452,0.478467 0.09977,-0.09977 0.102838,0.02333 0.0068,0.273556 -0.100297,0.261369 -0.04996,0.454956 0.118308,0.454956 0.375757,0 0.381473,2.183911 0.0092,3.524456 -0.777394,2.799563 -3.953847,4.342714 -6.587628,3.200333 z m 2.946924,-0.118107 c 1.853015,-0.514675 3.332832,-2.972714 3.051668,-5.068949 -0.178314,-1.329429 -1.395397,-3.225268 -1.937097,-3.017398 -0.215976,0.08288 -0.323634,0.03896 -0.23924,-0.09759 0.244654,-0.39586 -0.785701,-0.804081 -2.026795,-0.803006 -2.805032,0.0024 -4.734211,2.843539 -3.944842,5.809582 0.370307,1.391424 1.642835,2.833655 2.796341,3.169258 1.08696,0.316242 1.189253,0.316603 2.299965,0.0081 z m -1.236877,-2.105734 c 0.09085,-0.146999 -0.0091,-0.196017 -0.228294,-0.111918 -0.214468,0.0823 -0.643742,0.01381 -0.953942,-0.152209 -0.63838,-0.341651 -1.596808,-1.78579 -1.582671,-2.384737 0.0052,-0.218282 0.174313,-0.01763 0.375914,0.445898 0.495662,1.139639 1.763467,1.765571 3.239198,1.599235 0.636634,-0.07176 1.420575,-0.351048 1.742092,-0.620644 0.321517,-0.269597 0.228702,-0.09864 -0.206254,0.379909 -0.497039,0.546851 -0.963925,0.824819 -1.256771,0.748238 -0.256267,-0.06701 -0.465941,-0.01393 -0.465941,0.117967 0,0.131897 -0.18562,0.239813 -0.41249,0.239813 -0.226869,0 -0.339748,-0.117698 -0.250841,-0.261552 z m 3.360744,-3.310323 c 0.0054,-0.436562 0.06469,-0.583124 0.131774,-0.325693 0.06708,0.257431 0.06267,0.614618 -0.0098,0.79375 -0.07247,0.179131 -0.127362,-0.03149 -0.12197,-0.468057 z m -32.839024,1.300868 c 0.0127,-0.308224 0.07539,-0.370919 0.159852,-0.159852 0.07643,0.190996 0.06703,0.419199 -0.02089,0.507118 -0.08792,0.08792 -0.150453,-0.06835 -0.138964,-0.347266 z m 26.305153,-5.137326 c 0.263389,-0.291042 0.53842,-0.529167 0.611181,-0.529167 0.07276,0 -0.08321,0.238125 -0.346598,0.529167 -0.263389,0.291042 -0.53842,0.529167 -0.611181,0.529167 -0.07276,0 0.08321,-0.238125 0.346598,-0.529167 z m 15.255317,-2.645834 c 0,-0.363802 0.06005,-0.51263 0.133453,-0.330729 0.0734,0.181901 0.0734,0.479558 0,0.661459 -0.0734,0.181901 -0.133453,0.03307 -0.133453,-0.33073 z M -57.877606,42.290398 c 0.181901,-0.0734 0.479558,-0.0734 0.661459,0 0.181901,0.0734 0.03307,0.133452 -0.33073,0.133452 -0.363802,0 -0.51263,-0.06005 -0.330729,-0.133452 z m 1.07487,-0.534679 c 0.190996,-0.07643 0.419199,-0.06703 0.507118,0.02089 0.08792,0.08792 -0.06835,0.150453 -0.347265,0.138965 -0.308225,-0.0127 -0.37092,-0.07539 -0.159853,-0.159853 z"
         id="path2" /><path
         style="fill:#110f0a"
         d="m -68.729548,64.692219 c -0.368886,-0.290165 -0.795741,-0.88626 -0.948566,-1.324655 -0.266918,-0.765681 -0.251905,-0.790566 0.381098,-0.631692 1.382013,0.346863 2.29955,-1.561228 1.140968,-2.37273 l -0.555005,-0.388741 0.593146,-0.317442 c 0.341743,-0.182895 1.053588,-0.255698 1.679484,-0.171766 2.40146,0.322034 3.454006,3.275346 1.768149,4.961203 -0.64615,0.64615 -0.988534,0.773397 -2.080985,0.773397 -0.905641,0 -1.513759,-0.162174 -1.978289,-0.527574 z m 18.427134,0.03805 c -0.453931,-0.285441 -0.959947,-0.905149 -1.124479,-1.377127 -0.389107,-1.116193 -0.390664,-1.111356 0.247759,-0.769683 1.314127,0.7033 2.504318,-1.362302 1.279336,-2.220313 l -0.555005,-0.388741 0.537611,-0.287721 c 1.185714,-0.634574 2.908835,-0.241894 3.807661,0.867726 0.696743,0.860143 0.620753,2.871844 -0.141977,3.75857 -0.830841,0.965911 -2.848003,1.173701 -4.050906,0.417289 z m -12.668421,-4.361051 c -0.759562,-1.1787 -2.383097,-2.018979 -3.911102,-2.024235 -1.657277,-0.0057 -2.781532,0.488711 -3.832094,1.685235 -0.940871,1.071593 -1.05525,1.051151 -0.46839,-0.08371 0.87484,-1.691753 3.246228,-2.888489 4.99258,-2.519536 1.355567,0.286391 2.514314,1.142532 3.253493,2.403846 0.790814,1.349423 0.763449,1.776648 -0.03449,0.538401 z m 18.25625,0 c -0.291042,-0.451643 -1.005417,-1.097664 -1.5875,-1.435603 -2.044407,-1.186918 -5.517487,-0.411363 -6.516411,1.455144 -0.175701,0.328299 -0.367743,0.54862 -0.426761,0.489602 -0.227065,-0.227065 0.740446,-1.702318 1.626825,-2.480569 2.294946,-2.014989 6.210984,-0.939014 7.334151,2.015139 0.351422,0.92431 0.182434,0.907142 -0.430304,-0.04371 z"
         id="path1" /></g></g></svg>
